<ttFont>
<head>
    <!-- Most of this table will be recalculated by the compiler -->
    <tableVersion value="1.0"/>
    <fontRevision value="1.0"/>
    <checkSumAdjustment value="0x8415dec7"/>
    <magicNumber value="0x5f0f3cf5"/>
    <flags value="00000000 00001011"/>
    <unitsPerEm value="2048"/>
    <created value="Sun Mar 27 18:54:56 2011"/>
    <modified value="Sun Mar 27 18:54:56 2011"/>
    <xMin value="31"/>
    <yMin value="-451"/>
    <xMax value="2296"/>
    <yMax value="1576"/>
    <macStyle value="00000000 00000000"/>
    <lowestRecPPEM value="8"/>
    <fontDirectionHint value="2"/>
    <indexToLocFormat value="0"/>
    <glyphDataFormat value="0"/>
  </head>
    <TTGlyph name="A" xMin="78" yMin="0" xMax="1741" yMax="1536">
      <contour>
        <pt x="1192" y="0" on="1"/>
        <pt x="1118" y="258" on="1"/>
        <pt x="700" y="258" on="1"/>
        <pt x="627" y="0" on="1"/>
        <pt x="78" y="0" on="1"/>
        <pt x="78" y="434" on="1"/>
        <pt x="201" y="459" on="1"/>
        <pt x="516" y="1536" on="1"/>
        <pt x="1302" y="1536" on="1"/>
        <pt x="1618" y="459" on="1"/>
        <pt x="1741" y="434" on="1"/>
        <pt x="1741" y="0" on="1"/>
      </contour>
      <contour>
        <pt x="786" y="651" on="1"/>
        <pt x="1032" y="651" on="1"/>
        <pt x="909" y="1180" on="1"/>
      </contour>
    </TTGlyph>
    <TTGlyph name="B" xMin="121" yMin="0" xMax="1828" yMax="1536">
      <contour>
        <pt x="1413" y="1536" on="1"/>
        <pt x="1571" y="1498" on="0"/>
        <pt x="1726" y="1324" on="0"/>
        <pt x="1726" y="1177" on="1"/>
        <pt x="1726" y="1103" on="0"/>
        <pt x="1701" y="991" on="0"/>
        <pt x="1660" y="908" on="0"/>
        <pt x="1607" y="852" on="0"/>
        <pt x="1580" y="834" on="1"/>
        <pt x="1516" y="791" on="0"/>
        <pt x="1435" y="786" on="1"/>
        <pt x="1545" y="781" on="0"/>
        <pt x="1631" y="745" on="1"/>
        <pt x="1668" y="730" on="0"/>
        <pt x="1738" y="682" on="0"/>
        <pt x="1794" y="613" on="0"/>
        <pt x="1828" y="520" on="0"/>
        <pt x="1828" y="459" on="1"/>
        <pt x="1828" y="361" on="0"/>
        <pt x="1779" y="193" on="0"/>
        <pt x="1656" y="70" on="0"/>
        <pt x="1444" y="0" on="0"/>
        <pt x="1282" y="0" on="1"/>
        <pt x="121" y="0" on="1"/>
        <pt x="121" y="434" on="1"/>
        <pt x="249" y="459" on="1"/>
        <pt x="249" y="1114" on="1"/>
        <pt x="121" y="1139" on="1"/>
        <pt x="121" y="1536" on="1"/>
      </contour>
      <contour>
        <pt x="1188" y="545" on="1"/>
        <pt x="1188" y="596" on="0"/>
        <pt x="1153" y="650" on="0"/>
        <pt x="1095" y="676" on="0"/>
        <pt x="1021" y="680" on="0"/>
        <pt x="983" y="680" on="1"/>
        <pt x="889" y="680" on="1"/>
        <pt x="889" y="393" on="1"/>
        <pt x="983" y="393" on="1"/>
        <pt x="1021" y="393" on="0"/>
        <pt x="1095" y="398" on="0"/>
        <pt x="1153" y="426" on="0"/>
        <pt x="1188" y="488" on="0"/>
      </contour>
      <contour>
        <pt x="1188" y="1044" on="1"/>
        <pt x="1188" y="1095" on="0"/>
        <pt x="1153" y="1150" on="0"/>
        <pt x="1095" y="1176" on="0"/>
        <pt x="1021" y="1180" on="0"/>
        <pt x="983" y="1180" on="1"/>
        <pt x="889" y="1180" on="1"/>
        <pt x="889" y="893" on="1"/>
        <pt x="983" y="893" on="1"/>
        <pt x="1021" y="893" on="0"/>
        <pt x="1095" y="898" on="0"/>
        <pt x="1153" y="926" on="0"/>
        <pt x="1188" y="987" on="0"/>
      </contour>
    </TTGlyph>
    <TTGlyph name="C" xMin="85" yMin="-40" xMax="1622" yMax="1576">
      <contour>
        <pt x="85" y="786" on="1"/>
        <pt x="85" y="923" on="0"/>
        <pt x="148" y="1147" on="0"/>
        <pt x="256" y="1323" on="0"/>
        <pt x="402" y="1451" on="0"/>
        <pt x="570" y="1535" on="0"/>
        <pt x="750" y="1576" on="0"/>
        <pt x="839" y="1576" on="1"/>
        <pt x="939" y="1576" on="0"/>
        <pt x="1113" y="1506" on="0"/>
        <pt x="1179" y="1440" on="1"/>
        <pt x="1202" y="1536" on="1"/>
        <pt x="1622" y="1536" on="1"/>
        <pt x="1622" y="865" on="1"/>
        <pt x="1198" y="865" on="1"/>
        <pt x="1189" y="929" on="0"/>
        <pt x="1144" y="1023" on="0"/>
        <pt x="1083" y="1085" on="0"/>
        <pt x="1009" y="1115" on="0"/>
        <pt x="971" y="1115" on="1"/>
        <pt x="925" y="1115" on="0"/>
        <pt x="837" y="1072" on="0"/>
        <pt x="768" y="989" on="0"/>
        <pt x="725" y="866" on="0"/>
        <pt x="725" y="786" on="1"/>
        <pt x="725" y="699" on="0"/>
        <pt x="769" y="574" on="0"/>
        <pt x="854" y="493" on="0"/>
        <pt x="978" y="455" on="0"/>
        <pt x="1057" y="455" on="1"/>
        <pt x="1158" y="455" on="0"/>
        <pt x="1421" y="526" on="0"/>
        <pt x="1579" y="592" on="1"/>
        <pt x="1579" y="131" on="1"/>
        <pt x="1416" y="46" on="0"/>
        <pt x="1097" y="-40" on="0"/>
        <pt x="948" y="-40" on="1"/>
        <pt x="765" y="-40" on="0"/>
        <pt x="450" y="60" on="0"/>
        <pt x="218" y="264" on="0"/>
        <pt x="85" y="575" on="0"/>
      </contour>
    </TTGlyph>
    <TTGlyph name="D" xMin="121" yMin="0" xMax="1913" yMax="1536">
      <contour>
        <pt x="1286" y="1536" on="1"/>
        <pt x="1431" y="1505" on="0"/>
        <pt x="1663" y="1388" on="0"/>
        <pt x="1826" y="1206" on="0"/>
        <pt x="1913" y="953" on="0"/>
        <pt x="1913" y="786" on="1"/>
        <pt x="1913" y="565" on="0"/>
        <pt x="1765" y="264" on="0"/>
        <pt x="1496" y="80" on="0"/>
        <pt x="1119" y="0" on="0"/>
        <pt x="889" y="0" on="1"/>
        <pt x="121" y="0" on="1"/>
        <pt x="121" y="434" on="1"/>
        <pt x="249" y="459" on="1"/>
        <pt x="249" y="1114" on="1"/>
        <pt x="121" y="1139" on="1"/>
        <pt x="121" y="1536" on="1"/>
      </contour>
      <contour>
        <pt x="987" y="459" on="1"/>
        <pt x="1094" y="459" on="0"/>
        <pt x="1210" y="506" on="0"/>
        <pt x="1263" y="592" on="0"/>
        <pt x="1272" y="712" on="0"/>
        <pt x="1272" y="786" on="1"/>
        <pt x="1272" y="860" on="0"/>
        <pt x="1263" y="981" on="0"/>
        <pt x="1210" y="1067" on="0"/>
        <pt x="1094" y="1114" on="0"/>
        <pt x="987" y="1114" on="1"/>
        <pt x="889" y="1114" on="1"/>
        <pt x="889" y="459" on="1"/>
      </contour>
    </TTGlyph>
    <TTGlyph name="E" xMin="121" yMin="0" xMax="1484" yMax="1536">
      <contour>
        <pt x="1478" y="0" on="1"/>
        <pt x="121" y="0" on="1"/>
        <pt x="121" y="434" on="1"/>
        <pt x="249" y="459" on="1"/>
        <pt x="249" y="1075" on="1"/>
        <pt x="121" y="1100" on="1"/>
        <pt x="121" y="1536" on="1"/>
        <pt x="1484" y="1536" on="1"/>
        <pt x="1484" y="984" on="1"/>
        <pt x="1422" y="1009" on="0"/>
        <pt x="1334" y="1029" on="1"/>
        <pt x="1259" y="1046" on="0"/>
        <pt x="1037" y="1075" on="0"/>
        <pt x="889" y="1075" on="1"/>
        <pt x="889" y="879" on="1"/>
        <pt x="1189" y="944" on="1"/>
        <pt x="1183" y="590" on="1"/>
        <pt x="889" y="655" on="1"/>
        <pt x="889" y="459" on="1"/>
        <pt x="1035" y="459" on="0"/>
        <pt x="1254" y="484" on="0"/>
        <pt x="1329" y="499" on="1"/>
        <pt x="1416" y="517" on="0"/>
        <pt x="1478" y="540" on="1"/>
      </contour>
    </TTGlyph>
    <TTGlyph name="F" xMin="121" yMin="0" xMax="1358" yMax="1536">
      <contour>
        <pt x="121" y="0" on="1"/>
        <pt x="121" y="434" on="1"/>
        <pt x="249" y="459" on="1"/>
        <pt x="249" y="1075" on="1"/>
        <pt x="121" y="1100" on="1"/>
        <pt x="121" y="1536" on="1"/>
        <pt x="1358" y="1536" on="1"/>
        <pt x="1358" y="1014" on="1"/>
        <pt x="1331" y="1031" on="0"/>
        <pt x="1271" y="1044" on="1"/>
        <pt x="1220" y="1055" on="0"/>
        <pt x="1036" y="1075" on="0"/>
        <pt x="889" y="1075" on="1"/>
        <pt x="889" y="879" on="1"/>
        <pt x="1161" y="944" on="1"/>
        <pt x="1161" y="590" on="1"/>
        <pt x="889" y="655" on="1"/>
        <pt x="889" y="459" on="1"/>
        <pt x="1017" y="430" on="1"/>
        <pt x="1017" y="0" on="1"/>
      </contour>
    </TTGlyph>
    <TTGlyph name="G" xMin="85" yMin="-39" xMax="1634" yMax="1576">
      <contour>
        <pt x="1012" y="864" on="1"/>
        <pt x="1634" y="864" on="1"/>
        <pt x="1634" y="162" on="1"/>
        <pt x="1554" y="120" on="0"/>
        <pt x="1375" y="46" on="0"/>
        <pt x="1195" y="-8" on="0"/>
        <pt x="1022" y="-39" on="0"/>
        <pt x="949" y="-39" on="1"/>
        <pt x="766" y="-39" on="0"/>
        <pt x="451" y="60" on="0"/>
        <pt x="218" y="264" on="0"/>
        <pt x="85" y="575" on="0"/>
        <pt x="85" y="786" on="1"/>
        <pt x="85" y="992" on="0"/>
        <pt x="206" y="1290" on="0"/>
        <pt x="430" y="1484" on="0"/>
        <pt x="746" y="1576" on="0"/>
        <pt x="940" y="1576" on="1"/>
        <pt x="1091" y="1576" on="0"/>
        <pt x="1322" y="1540" on="0"/>
        <pt x="1403" y="1518" on="1"/>
        <pt x="1496" y="1492" on="0"/>
        <pt x="1566" y="1460" on="1"/>
        <pt x="1566" y="981" on="1"/>
        <pt x="1470" y="1018" on="0"/>
        <pt x="1377" y="1048" on="1"/>
        <pt x="1337" y="1061" on="0"/>
        <pt x="1251" y="1085" on="0"/>
        <pt x="1166" y="1104" on="0"/>
        <pt x="1085" y="1116" on="0"/>
        <pt x="1051" y="1116" on="1"/>
        <pt x="890" y="1116" on="0"/>
        <pt x="726" y="948" on="0"/>
        <pt x="726" y="786" on="1"/>
        <pt x="726" y="699" on="0"/>
        <pt x="770" y="574" on="0"/>
        <pt x="855" y="493" on="0"/>
        <pt x="979" y="455" on="0"/>
        <pt x="1058" y="455" on="1"/>
        <pt x="1125" y="455" on="0"/>
        <pt x="1204" y="471" on="1"/>
        <pt x="1204" y="570" on="1"/>
        <pt x="1012" y="570" on="1"/>
      </contour>
    </TTGlyph>
    <TTGlyph name="H" xMin="121" yMin="0" xMax="2169" yMax="1536">
      <contour>
        <pt x="121" y="1536" on="1"/>
        <pt x="1017" y="1536" on="1"/>
        <pt x="1017" y="1100" on="1"/>
        <pt x="889" y="1075" on="1"/>
        <pt x="889" y="896" on="1"/>
        <pt x="1401" y="896" on="1"/>
        <pt x="1401" y="1075" on="1"/>
        <pt x="1273" y="1100" on="1"/>
        <pt x="1273" y="1536" on="1"/>
        <pt x="2169" y="1536" on="1"/>
        <pt x="2169" y="1100" on="1"/>
        <pt x="2041" y="1075" on="1"/>
        <pt x="2041" y="459" on="1"/>
        <pt x="2169" y="434" on="1"/>
        <pt x="2169" y="0" on="1"/>
        <pt x="1273" y="0" on="1"/>
        <pt x="1273" y="434" on="1"/>
        <pt x="1401" y="459" on="1"/>
        <pt x="1401" y="640" on="1"/>
        <pt x="889" y="640" on="1"/>
        <pt x="889" y="459" on="1"/>
        <pt x="1017" y="434" on="1"/>
        <pt x="1017" y="0" on="1"/>
        <pt x="121" y="0" on="1"/>
        <pt x="121" y="434" on="1"/>
        <pt x="249" y="459" on="1"/>
        <pt x="249" y="1075" on="1"/>
        <pt x="121" y="1100" on="1"/>
      </contour>
    </TTGlyph>
    <TTGlyph name="I" xMin="120" yMin="0" xMax="1016" yMax="1536">
      <contour>
        <pt x="120" y="1536" on="1"/>
        <pt x="1016" y="1536" on="1"/>
        <pt x="1016" y="1102" on="1"/>
        <pt x="888" y="1077" on="1"/>
        <pt x="888" y="459" on="1"/>
        <pt x="1016" y="434" on="1"/>
        <pt x="1016" y="0" on="1"/>
        <pt x="120" y="0" on="1"/>
        <pt x="120" y="434" on="1"/>
        <pt x="248" y="459" on="1"/>
        <pt x="248" y="1077" on="1"/>
        <pt x="120" y="1102" on="1"/>
      </contour>
    </TTGlyph>
    <TTGlyph name="K" xMin="120" yMin="0" xMax="1993" yMax="1536">
      <contour>
        <pt x="1477" y="766" on="1"/>
        <pt x="1993" y="0" on="1"/>
        <pt x="1221" y="0" on="1"/>
        <pt x="888" y="641" on="1"/>
        <pt x="888" y="0" on="1"/>
        <pt x="120" y="0" on="1"/>
        <pt x="120" y="434" on="1"/>
        <pt x="248" y="459" on="1"/>
        <pt x="248" y="1077" on="1"/>
        <pt x="120" y="1102" on="1"/>
        <pt x="120" y="1536" on="1"/>
        <pt x="888" y="1536" on="1"/>
        <pt x="888" y="920" on="1"/>
        <pt x="1221" y="1536" on="1"/>
        <pt x="1993" y="1536" on="1"/>
      </contour>
    </TTGlyph>
    <TTGlyph name="L" xMin="120" yMin="0" xMax="1272" yMax="1536">
      <contour>
        <pt x="120" y="1536" on="1"/>
        <pt x="1016" y="1536" on="1"/>
        <pt x="1016" y="1102" on="1"/>
        <pt x="888" y="1077" on="1"/>
        <pt x="888" y="459" on="1"/>
        <pt x="962" y="459" on="0"/>
        <pt x="1099" y="478" on="0"/>
        <pt x="1153" y="489" on="1"/>
        <pt x="1215" y="502" on="0"/>
        <pt x="1272" y="520" on="1"/>
        <pt x="1272" y="0" on="1"/>
        <pt x="120" y="0" on="1"/>
        <pt x="120" y="434" on="1"/>
        <pt x="248" y="459" on="1"/>
        <pt x="248" y="1077" on="1"/>
        <pt x="120" y="1102" on="1"/>
      </contour>
    </TTGlyph>
    <TTGlyph name="M" xMin="120" yMin="0" xMax="2296" yMax="1536">
      <contour>
        <pt x="887" y="749" on="1"/>
        <pt x="887" y="0" on="1"/>
        <pt x="120" y="0" on="1"/>
        <pt x="120" y="434" on="1"/>
        <pt x="248" y="459" on="1"/>
        <pt x="248" y="1077" on="1"/>
        <pt x="120" y="1102" on="1"/>
        <pt x="120" y="1536" on="1"/>
        <pt x="887" y="1536" on="1"/>
        <pt x="1209" y="946" on="1"/>
        <pt x="1528" y="1536" on="1"/>
        <pt x="2296" y="1536" on="1"/>
        <pt x="2296" y="1102" on="1"/>
        <pt x="2168" y="1077" on="1"/>
        <pt x="2168" y="459" on="1"/>
        <pt x="2296" y="434" on="1"/>
        <pt x="2296" y="0" on="1"/>
        <pt x="1528" y="0" on="1"/>
        <pt x="1528" y="749" on="1"/>
        <pt x="1209" y="197" on="1"/>
      </contour>
    </TTGlyph>
    <TTGlyph name="N" xMin="121" yMin="0" xMax="1913" yMax="1536">
      <contour>
        <pt x="633" y="749" on="1"/>
        <pt x="633" y="459" on="1"/>
        <pt x="761" y="435" on="1"/>
        <pt x="761" y="0" on="1"/>
        <pt x="121" y="0" on="1"/>
        <pt x="121" y="434" on="1"/>
        <pt x="249" y="459" on="1"/>
        <pt x="249" y="1077" on="1"/>
        <pt x="121" y="1102" on="1"/>
        <pt x="121" y="1536" on="1"/>
        <pt x="889" y="1536" on="1"/>
        <pt x="1401" y="749" on="1"/>
        <pt x="1401" y="1075" on="1"/>
        <pt x="1273" y="1102" on="1"/>
        <pt x="1273" y="1536" on="1"/>
        <pt x="1913" y="1536" on="1"/>
        <pt x="1913" y="1102" on="1"/>
        <pt x="1785" y="1077" on="1"/>
        <pt x="1785" y="459" on="1"/>
        <pt x="1913" y="434" on="1"/>
        <pt x="1913" y="0" on="1"/>
        <pt x="1144" y="0" on="1"/>
      </contour>
    </TTGlyph>
    <TTGlyph name="O" xMin="89" yMin="-40" xMax="1881" yMax="1576">
      <contour>
        <pt x="984" y="-40" on="1"/>
        <pt x="859" y="-40" on="0"/>
        <pt x="629" y="1" on="0"/>
        <pt x="430" y="86" on="0"/>
        <pt x="268" y="218" on="0"/>
        <pt x="152" y="402" on="0"/>
        <pt x="89" y="639" on="0"/>
        <pt x="89" y="786" on="1"/>
        <pt x="89" y="928" on="0"/>
        <pt x="152" y="1156" on="0"/>
        <pt x="268" y="1331" on="0"/>
        <pt x="431" y="1457" on="0"/>
        <pt x="630" y="1538" on="0"/>
        <pt x="859" y="1576" on="0"/>
        <pt x="984" y="1576" on="1"/>
        <pt x="1108" y="1576" on="0"/>
        <pt x="1338" y="1538" on="0"/>
        <pt x="1537" y="1457" on="0"/>
        <pt x="1701" y="1331" on="0"/>
        <pt x="1817" y="1156" on="0"/>
        <pt x="1881" y="928" on="0"/>
        <pt x="1881" y="786" on="1"/>
        <pt x="1881" y="565" on="0"/>
        <pt x="1741" y="252" on="0"/>
        <pt x="1498" y="52" on="0"/>
        <pt x="1171" y="-40" on="0"/>
      </contour>
      <contour>
        <pt x="984" y="1102" on="1"/>
        <pt x="920" y="1102" on="0"/>
        <pt x="833" y="1069" on="0"/>
        <pt x="776" y="1015" on="0"/>
        <pt x="746" y="947" on="0"/>
        <pt x="731" y="877" on="0"/>
        <pt x="729" y="811" on="0"/>
        <pt x="729" y="786" on="1"/>
        <pt x="729" y="761" on="0"/>
        <pt x="731" y="695" on="0"/>
        <pt x="746" y="624" on="0"/>
        <pt x="776" y="554" on="0"/>
        <pt x="833" y="499" on="0"/>
        <pt x="920" y="465" on="0"/>
        <pt x="984" y="465" on="1"/>
        <pt x="1048" y="465" on="0"/>
        <pt x="1135" y="499" on="0"/>
        <pt x="1193" y="554" on="0"/>
        <pt x="1224" y="624" on="0"/>
        <pt x="1238" y="695" on="0"/>
        <pt x="1241" y="761" on="0"/>
        <pt x="1241" y="786" on="1"/>
        <pt x="1241" y="811" on="0"/>
        <pt x="1238" y="877" on="0"/>
        <pt x="1224" y="947" on="0"/>
        <pt x="1193" y="1015" on="0"/>
        <pt x="1135" y="1069" on="0"/>
        <pt x="1048" y="1102" on="0"/>
      </contour>
    </TTGlyph>
    <TTGlyph name="P" xMin="120" yMin="0" xMax="1784" yMax="1536">
      <contour>
        <pt x="120" y="1536" on="1"/>
        <pt x="991" y="1536" on="1"/>
        <pt x="1161" y="1536" on="0"/>
        <pt x="1411" y="1505" on="0"/>
        <pt x="1587" y="1447" on="0"/>
        <pt x="1698" y="1363" on="0"/>
        <pt x="1761" y="1259" on="0"/>
        <pt x="1784" y="1135" on="0"/>
        <pt x="1784" y="1065" on="1"/>
        <pt x="1784" y="993" on="0"/>
        <pt x="1757" y="867" on="0"/>
        <pt x="1685" y="762" on="0"/>
        <pt x="1558" y="678" on="0"/>
        <pt x="1359" y="621" on="0"/>
        <pt x="1078" y="590" on="0"/>
        <pt x="888" y="590" on="1"/>
        <pt x="888" y="459" on="1"/>
        <pt x="1016" y="434" on="1"/>
        <pt x="1016" y="0" on="1"/>
        <pt x="120" y="0" on="1"/>
        <pt x="120" y="434" on="1"/>
        <pt x="248" y="459" on="1"/>
        <pt x="248" y="1077" on="1"/>
        <pt x="120" y="1102" on="1"/>
      </contour>
      <contour>
        <pt x="888" y="865" on="1"/>
        <pt x="946" y="865" on="0"/>
        <pt x="1041" y="877" on="0"/>
        <pt x="1108" y="916" on="0"/>
        <pt x="1144" y="990" on="0"/>
        <pt x="1144" y="1053" on="1"/>
        <pt x="1144" y="1114" on="0"/>
        <pt x="1108" y="1187" on="0"/>
        <pt x="1041" y="1225" on="0"/>
        <pt x="946" y="1237" on="0"/>
        <pt x="888" y="1237" on="1"/>
      </contour>
    </TTGlyph>
    <TTGlyph name="Q" xMin="61" yMin="-451" xMax="1853" yMax="1576">
      <contour>
        <pt x="1659" y="-451" on="1"/>
        <pt x="1528" y="-451" on="0"/>
        <pt x="1302" y="-413" on="0"/>
        <pt x="1109" y="-349" on="0"/>
        <pt x="948" y="-262" on="0"/>
        <pt x="815" y="-164" on="0"/>
        <pt x="709" y="-60" on="0"/>
        <pt x="668" y="-10" on="1"/>
        <pt x="534" y="20" on="0"/>
        <pt x="311" y="144" on="0"/>
        <pt x="151" y="339" on="0"/>
        <pt x="61" y="610" on="0"/>
        <pt x="61" y="786" on="1"/>
        <pt x="61" y="928" on="0"/>
        <pt x="124" y="1156" on="0"/>
        <pt x="240" y="1331" on="0"/>
        <pt x="403" y="1457" on="0"/>
        <pt x="602" y="1538" on="0"/>
        <pt x="831" y="1576" on="0"/>
        <pt x="956" y="1576" on="1"/>
        <pt x="1080" y="1576" on="0"/>
        <pt x="1310" y="1538" on="0"/>
        <pt x="1509" y="1457" on="0"/>
        <pt x="1673" y="1331" on="0"/>
        <pt x="1789" y="1156" on="0"/>
        <pt x="1853" y="928" on="0"/>
        <pt x="1853" y="786" on="1"/>
        <pt x="1853" y="626" on="0"/>
        <pt x="1778" y="374" on="0"/>
        <pt x="1643" y="184" on="0"/>
        <pt x="1454" y="54" on="0"/>
        <pt x="1340" y="16" on="1"/>
        <pt x="1411" y="-19" on="0"/>
        <pt x="1629" y="-65" on="0"/>
        <pt x="1787" y="-65" on="1"/>
      </contour>
      <contour>
        <pt x="956" y="1102" on="1"/>
        <pt x="892" y="1102" on="0"/>
        <pt x="805" y="1069" on="0"/>
        <pt x="748" y="1015" on="0"/>
        <pt x="718" y="947" on="0"/>
        <pt x="703" y="877" on="0"/>
        <pt x="701" y="811" on="0"/>
        <pt x="701" y="786" on="1"/>
        <pt x="701" y="761" on="0"/>
        <pt x="703" y="695" on="0"/>
        <pt x="718" y="624" on="0"/>
        <pt x="748" y="554" on="0"/>
        <pt x="805" y="499" on="0"/>
        <pt x="892" y="465" on="0"/>
        <pt x="956" y="465" on="1"/>
        <pt x="1020" y="465" on="0"/>
        <pt x="1107" y="499" on="0"/>
        <pt x="1165" y="554" on="0"/>
        <pt x="1196" y="624" on="0"/>
        <pt x="1210" y="695" on="0"/>
        <pt x="1213" y="761" on="0"/>
        <pt x="1213" y="786" on="1"/>
        <pt x="1213" y="811" on="0"/>
        <pt x="1210" y="877" on="0"/>
        <pt x="1196" y="947" on="0"/>
        <pt x="1165" y="1015" on="0"/>
        <pt x="1107" y="1069" on="0"/>
        <pt x="1020" y="1102" on="0"/>
      </contour>
    </TTGlyph>
    <TTGlyph name="R" xMin="120" yMin="0" xMax="1849" yMax="1536">
      <contour>
        <pt x="923" y="549" on="1"/>
        <pt x="888" y="549" on="1"/>
        <pt x="888" y="0" on="1"/>
        <pt x="120" y="0" on="1"/>
        <pt x="120" y="434" on="1"/>
        <pt x="248" y="459" on="1"/>
        <pt x="248" y="1077" on="1"/>
        <pt x="120" y="1102" on="1"/>
        <pt x="120" y="1536" on="1"/>
        <pt x="991" y="1536" on="1"/>
        <pt x="1164" y="1536" on="0"/>
        <pt x="1416" y="1504" on="0"/>
        <pt x="1592" y="1445" on="0"/>
        <pt x="1701" y="1360" on="0"/>
        <pt x="1762" y="1253" on="0"/>
        <pt x="1783" y="1126" on="0"/>
        <pt x="1783" y="1055" on="1"/>
        <pt x="1783" y="983" on="0"/>
        <pt x="1758" y="866" on="0"/>
        <pt x="1694" y="768" on="0"/>
        <pt x="1584" y="687" on="0"/>
        <pt x="1499" y="651" on="1"/>
        <pt x="1849" y="0" on="1"/>
        <pt x="1147" y="0" on="1"/>
      </contour>
      <contour>
        <pt x="888" y="844" on="1"/>
        <pt x="946" y="844" on="0"/>
        <pt x="1041" y="854" on="0"/>
        <pt x="1108" y="890" on="0"/>
        <pt x="1144" y="960" on="0"/>
        <pt x="1144" y="1019" on="1"/>
        <pt x="1144" y="1077" on="0"/>
        <pt x="1108" y="1146" on="0"/>
        <pt x="1041" y="1184" on="0"/>
        <pt x="946" y="1196" on="0"/>
        <pt x="888" y="1196" on="1"/>
      </contour>
    </TTGlyph>
    <TTGlyph name="S" xMin="94" yMin="-39" xMax="1400" yMax="1576">
      <contour>
        <pt x="690" y="-39" on="1"/>
        <pt x="565" y="-39" on="0"/>
        <pt x="350" y="-3" on="0"/>
        <pt x="269" y="19" on="1"/>
        <pt x="174" y="45" on="0"/>
        <pt x="94" y="77" on="1"/>
        <pt x="174" y="568" on="1"/>
        <pt x="251" y="530" on="0"/>
        <pt x="331" y="501" on="1"/>
        <pt x="365" y="488" on="0"/>
        <pt x="442" y="464" on="0"/>
        <pt x="521" y="445" on="0"/>
        <pt x="601" y="434" on="0"/>
        <pt x="639" y="434" on="1"/>
        <pt x="678" y="434" on="0"/>
        <pt x="725" y="447" on="0"/>
        <pt x="751" y="466" on="0"/>
        <pt x="760" y="490" on="0"/>
        <pt x="760" y="502" on="1"/>
        <pt x="682" y="510" on="0"/>
        <pt x="527" y="541" on="0"/>
        <pt x="386" y="592" on="0"/>
        <pt x="265" y="670" on="0"/>
        <pt x="176" y="783" on="0"/>
        <pt x="126" y="934" on="0"/>
        <pt x="126" y="1033" on="1"/>
        <pt x="126" y="1145" on="0"/>
        <pt x="179" y="1313" on="0"/>
        <pt x="273" y="1433" on="0"/>
        <pt x="401" y="1512" on="0"/>
        <pt x="549" y="1558" on="0"/>
        <pt x="712" y="1576" on="0"/>
        <pt x="794" y="1576" on="1"/>
        <pt x="919" y="1576" on="0"/>
        <pt x="1132" y="1540" on="0"/>
        <pt x="1212" y="1518" on="1"/>
        <pt x="1305" y="1492" on="0"/>
        <pt x="1382" y="1460" on="1"/>
        <pt x="1382" y="981" on="1"/>
        <pt x="1307" y="1018" on="0"/>
        <pt x="1224" y="1048" on="1"/>
        <pt x="1189" y="1060" on="0"/>
        <pt x="1108" y="1084" on="0"/>
        <pt x="1021" y="1103" on="0"/>
        <pt x="929" y="1115" on="0"/>
        <pt x="884" y="1115" on="1"/>
        <pt x="866" y="1115" on="0"/>
        <pt x="820" y="1112" on="0"/>
        <pt x="780" y="1098" on="0"/>
        <pt x="752" y="1069" on="0"/>
        <pt x="752" y="1044" on="1"/>
        <pt x="912" y="1038" on="0"/>
        <pt x="1154" y="971" on="0"/>
        <pt x="1317" y="838" on="0"/>
        <pt x="1400" y="630" on="0"/>
        <pt x="1400" y="482" on="1"/>
        <pt x="1400" y="373" on="0"/>
        <pt x="1340" y="211" on="0"/>
        <pt x="1236" y="96" on="0"/>
        <pt x="1097" y="21" on="0"/>
        <pt x="939" y="-22" on="0"/>
        <pt x="771" y="-39" on="0"/>
      </contour>
    </TTGlyph>
    <TTGlyph name="T" xMin="88" yMin="0" xMax="1496" yMax="1536">
      <contour>
        <pt x="88" y="1536" on="1"/>
        <pt x="1496" y="1536" on="1"/>
        <pt x="1496" y="1063" on="1"/>
        <pt x="1440" y="1077" on="0"/>
        <pt x="1378" y="1088" on="1"/>
        <pt x="1324" y="1098" on="0"/>
        <pt x="1186" y="1114" on="0"/>
        <pt x="1112" y="1114" on="1"/>
        <pt x="1112" y="459" on="1"/>
        <pt x="1240" y="434" on="1"/>
        <pt x="1240" y="0" on="1"/>
        <pt x="344" y="0" on="1"/>
        <pt x="344" y="434" on="1"/>
        <pt x="472" y="459" on="1"/>
        <pt x="472" y="1114" on="1"/>
        <pt x="398" y="1114" on="0"/>
        <pt x="260" y="1098" on="0"/>
        <pt x="206" y="1088" on="1"/>
        <pt x="143" y="1077" on="0"/>
        <pt x="88" y="1063" on="1"/>
      </contour>
    </TTGlyph>
    <TTGlyph name="U" xMin="84" yMin="-39" xMax="1876" yMax="1536">
      <contour>
        <pt x="1236" y="1100" on="1"/>
        <pt x="1236" y="1536" on="1"/>
        <pt x="1876" y="1536" on="1"/>
        <pt x="1876" y="1100" on="1"/>
        <pt x="1747" y="1075" on="1"/>
        <pt x="1747" y="954" on="1"/>
        <pt x="1747" y="930" on="0"/>
        <pt x="1747" y="880" on="0"/>
        <pt x="1748" y="835" on="0"/>
        <pt x="1748" y="798" on="0"/>
        <pt x="1748" y="786" on="1"/>
        <pt x="1748" y="565" on="0"/>
        <pt x="1634" y="252" on="0"/>
        <pt x="1440" y="53" on="0"/>
        <pt x="1181" y="-39" on="0"/>
        <pt x="1036" y="-39" on="1"/>
        <pt x="864" y="-39" on="0"/>
        <pt x="564" y="53" on="0"/>
        <pt x="341" y="252" on="0"/>
        <pt x="212" y="565" on="0"/>
        <pt x="212" y="786" on="1"/>
        <pt x="212" y="1075" on="1"/>
        <pt x="84" y="1100" on="1"/>
        <pt x="84" y="1536" on="1"/>
        <pt x="980" y="1536" on="1"/>
        <pt x="980" y="1100" on="1"/>
        <pt x="852" y="1075" on="1"/>
        <pt x="852" y="786" on="1"/>
        <pt x="852" y="761" on="0"/>
        <pt x="856" y="695" on="0"/>
        <pt x="872" y="624" on="0"/>
        <pt x="905" y="554" on="0"/>
        <pt x="964" y="499" on="0"/>
        <pt x="1052" y="465" on="0"/>
        <pt x="1116" y="465" on="1"/>
        <pt x="1177" y="465" on="0"/>
        <pt x="1262" y="499" on="0"/>
        <pt x="1317" y="554" on="0"/>
        <pt x="1347" y="624" on="0"/>
        <pt x="1361" y="695" on="0"/>
        <pt x="1364" y="761" on="0"/>
        <pt x="1364" y="786" on="1"/>
        <pt x="1364" y="1075" on="1"/>
      </contour>
    </TTGlyph>
    <TTGlyph name="Y" xMin="67" yMin="0" xMax="1819" yMax="1536">
      <contour>
        <pt x="499" y="0" on="1"/>
        <pt x="499" y="432" on="1"/>
        <pt x="627" y="464" on="1"/>
        <pt x="67" y="1536" on="1"/>
        <pt x="707" y="1536" on="1"/>
        <pt x="943" y="1004" on="1"/>
        <pt x="1179" y="1536" on="1"/>
        <pt x="1819" y="1536" on="1"/>
        <pt x="1259" y="464" on="1"/>
        <pt x="1387" y="432" on="1"/>
        <pt x="1387" y="0" on="1"/>
      </contour>
    </TTGlyph>
    <TTGlyph name="h" xMin="53" yMin="-2" xMax="1626" yMax="1468">
      <contour>
        <pt x="172" y="510" on="1"/>
        <pt x="174" y="510" on="0"/>
        <pt x="182" y="515" on="0"/>
        <pt x="184" y="518" on="1"/>
        <pt x="236" y="684" on="1"/>
        <pt x="236" y="687" on="0"/>
        <pt x="239" y="701" on="0"/>
        <pt x="242" y="705" on="1"/>
        <pt x="287" y="844" on="1"/>
        <pt x="289" y="864" on="0"/>
        <pt x="304" y="901" on="0"/>
        <pt x="307" y="920" on="1"/>
        <pt x="365" y="1102" on="1"/>
        <pt x="365" y="1104" on="1"/>
        <pt x="365" y="1106" on="0"/>
        <pt x="367" y="1108" on="0"/>
        <pt x="367" y="1110" on="1"/>
        <pt x="471" y="1452" on="1"/>
        <pt x="471" y="1454" on="0"/>
        <pt x="476" y="1464" on="0"/>
        <pt x="479" y="1466" on="1"/>
        <pt x="516" y="1466" on="1"/>
        <pt x="559" y="1466" on="0"/>
        <pt x="642" y="1468" on="0"/>
        <pt x="684" y="1468" on="1"/>
        <pt x="710" y="1468" on="0"/>
        <pt x="749" y="1466" on="0"/>
        <pt x="768" y="1466" on="1"/>
        <pt x="776" y="1466" on="0"/>
        <pt x="791" y="1466" on="0"/>
        <pt x="799" y="1468" on="1"/>
        <pt x="1176" y="1468" on="1"/>
        <pt x="1179" y="1468" on="0"/>
        <pt x="1192" y="1466" on="0"/>
        <pt x="1194" y="1460" on="1"/>
        <pt x="1243" y="1309" on="1"/>
        <pt x="1245" y="1305" on="0"/>
        <pt x="1245" y="1300" on="1"/>
        <pt x="1245" y="1296" on="1"/>
        <pt x="1262" y="1247" on="0"/>
        <pt x="1297" y="1151" on="0"/>
        <pt x="1313" y="1100" on="1"/>
        <pt x="1313" y="1095" on="0"/>
        <pt x="1322" y="1088" on="0"/>
        <pt x="1332" y="1080" on="0"/>
        <pt x="1341" y="1069" on="0"/>
        <pt x="1341" y="1061" on="1"/>
        <pt x="1341" y="1056" on="0"/>
        <pt x="1339" y="1053" on="0"/>
        <pt x="1339" y="1051" on="1"/>
        <pt x="1339" y="1049" on="0"/>
        <pt x="1346" y="1043" on="0"/>
        <pt x="1346" y="1040" on="1"/>
        <pt x="1346" y="1032" on="0"/>
        <pt x="1341" y="1016" on="0"/>
        <pt x="1341" y="1010" on="1"/>
        <pt x="1393" y="842" on="1"/>
        <pt x="1404" y="826" on="0"/>
        <pt x="1406" y="788" on="0"/>
        <pt x="1417" y="772" on="1"/>
        <pt x="1495" y="528" on="1"/>
        <pt x="1498" y="515" on="0"/>
        <pt x="1511" y="512" on="1"/>
        <pt x="1618" y="502" on="1"/>
        <pt x="1626" y="498" on="0"/>
        <pt x="1626" y="477" on="1"/>
        <pt x="1626" y="388" on="0"/>
        <pt x="1625" y="285" on="0"/>
        <pt x="1623" y="225" on="0"/>
        <pt x="1622" y="194" on="0"/>
        <pt x="1622" y="176" on="1"/>
        <pt x="1622" y="164" on="0"/>
        <pt x="1624" y="136" on="0"/>
        <pt x="1624" y="131" on="1"/>
        <pt x="1626" y="16" on="1"/>
        <pt x="1626" y="10" on="0"/>
        <pt x="1616" y="3" on="0"/>
        <pt x="1601" y="-1" on="0"/>
        <pt x="1584" y="-2" on="0"/>
        <pt x="1577" y="-2" on="1"/>
        <pt x="1575" y="-2" on="0"/>
        <pt x="1560" y="-1" on="0"/>
        <pt x="1542" y="-1" on="0"/>
        <pt x="1526" y="0" on="0"/>
        <pt x="1524" y="0" on="1"/>
        <pt x="1508" y="0" on="0"/>
        <pt x="1482" y="-2" on="0"/>
        <pt x="1468" y="-2" on="1"/>
        <pt x="1423" y="-2" on="0"/>
        <pt x="1337" y="0" on="0"/>
        <pt x="1292" y="0" on="1"/>
        <pt x="1244" y="0" on="0"/>
        <pt x="1150" y="-2" on="0"/>
        <pt x="1102" y="-2" on="1"/>
        <pt x="1098" y="-2" on="0"/>
        <pt x="1084" y="-2" on="0"/>
        <pt x="1070" y="-1" on="0"/>
        <pt x="1059" y="3" on="0"/>
        <pt x="1059" y="8" on="1"/>
        <pt x="1008" y="186" on="1"/>
        <pt x="1005" y="194" on="0"/>
        <pt x="987" y="199" on="0"/>
        <pt x="979" y="199" on="1"/>
        <pt x="978" y="199" on="0"/>
        <pt x="969" y="198" on="0"/>
        <pt x="958" y="198" on="0"/>
        <pt x="947" y="197" on="0"/>
        <pt x="946" y="197" on="1"/>
        <pt x="943" y="197" on="0"/>
        <pt x="933" y="199" on="0"/>
        <pt x="930" y="199" on="1"/>
        <pt x="904" y="199" on="0"/>
        <pt x="851" y="197" on="0"/>
        <pt x="825" y="197" on="1"/>
        <pt x="797" y="197" on="0"/>
        <pt x="763" y="199" on="0"/>
        <pt x="741" y="199" on="1"/>
        <pt x="736" y="199" on="0"/>
        <pt x="715" y="198" on="0"/>
        <pt x="690" y="198" on="0"/>
        <pt x="668" y="197" on="0"/>
        <pt x="664" y="197" on="1"/>
        <pt x="658" y="194" on="0"/>
        <pt x="650" y="175" on="0"/>
        <pt x="648" y="164" on="1"/>
        <pt x="645" y="152" on="0"/>
        <pt x="643" y="137" on="1"/>
        <pt x="618" y="43" on="1"/>
        <pt x="612" y="34" on="0"/>
        <pt x="609" y="6" on="0"/>
        <pt x="600" y="0" on="1"/>
        <pt x="564" y="0" on="0"/>
        <pt x="468" y="-1" on="0"/>
        <pt x="380" y="-1" on="0"/>
        <pt x="318" y="-2" on="0"/>
        <pt x="315" y="-2" on="1"/>
        <pt x="313" y="-2" on="0"/>
        <pt x="297" y="0" on="0"/>
        <pt x="295" y="0" on="1"/>
        <pt x="236" y="0" on="0"/>
        <pt x="125" y="-2" on="0"/>
        <pt x="68" y="-2" on="1"/>
        <pt x="62" y="-2" on="0"/>
        <pt x="55" y="11" on="0"/>
        <pt x="53" y="30" on="0"/>
        <pt x="53" y="50" on="0"/>
        <pt x="53" y="57" on="1"/>
        <pt x="53" y="483" on="1"/>
        <pt x="53" y="492" on="0"/>
        <pt x="76" y="501" on="0"/>
        <pt x="111" y="505" on="0"/>
        <pt x="153" y="507" on="0"/>
      </contour>
      <contour>
        <pt x="1182" y="27" on="1"/>
        <pt x="1190" y="27" on="1"/>
        <pt x="1190" y="33" on="1"/>
        <pt x="1182" y="33" on="1"/>
      </contour>
      <contour>
        <pt x="1217" y="57" on="1"/>
        <pt x="1212" y="57" on="0"/>
        <pt x="1204" y="50" on="0"/>
        <pt x="1204" y="45" on="1"/>
        <pt x="1209" y="45" on="0"/>
        <pt x="1217" y="52" on="0"/>
      </contour>
      <contour>
        <pt x="1225" y="66" on="1"/>
        <pt x="1229" y="66" on="1"/>
        <pt x="1229" y="70" on="1"/>
        <pt x="1225" y="70" on="1"/>
      </contour>
      <contour>
        <pt x="829" y="571" on="1"/>
        <pt x="843" y="571" on="0"/>
        <pt x="870" y="565" on="0"/>
        <pt x="883" y="565" on="1"/>
        <pt x="889" y="565" on="0"/>
        <pt x="891" y="569" on="1"/>
        <pt x="940" y="569" on="1"/>
        <pt x="940" y="577" on="0"/>
        <pt x="940" y="596" on="0"/>
        <pt x="938" y="604" on="1"/>
        <pt x="877" y="809" on="1"/>
        <pt x="836" y="956" on="1"/>
        <pt x="836" y="958" on="0"/>
        <pt x="831" y="965" on="0"/>
        <pt x="829" y="965" on="1"/>
        <pt x="821" y="965" on="0"/>
        <pt x="815" y="946" on="0"/>
        <pt x="813" y="940" on="1"/>
        <pt x="723" y="590" on="1"/>
        <pt x="723" y="571" on="1"/>
        <pt x="724" y="570" on="0"/>
        <pt x="726" y="570" on="1"/>
        <pt x="728" y="569" on="0"/>
        <pt x="731" y="569" on="1"/>
        <pt x="754" y="569" on="0"/>
        <pt x="803" y="571" on="0"/>
      </contour>
    </TTGlyph>
    <TTGlyph name="j" xMin="66" yMin="1" xMax="1638" yMax="1481">
      <contour>
        <pt x="68" y="31" on="1"/>
        <pt x="68" y="67" on="0"/>
        <pt x="67" y="145" on="0"/>
        <pt x="67" y="217" on="0"/>
        <pt x="66" y="279" on="0"/>
        <pt x="66" y="299" on="1"/>
        <pt x="66" y="302" on="0"/>
        <pt x="68" y="318" on="0"/>
        <pt x="68" y="322" on="1"/>
        <pt x="68" y="498" on="1"/>
        <pt x="68" y="507" on="0"/>
        <pt x="107" y="510" on="0"/>
        <pt x="156" y="511" on="0"/>
        <pt x="199" y="517" on="0"/>
        <pt x="203" y="530" on="1"/>
        <pt x="242" y="666" on="1"/>
        <pt x="247" y="672" on="0"/>
        <pt x="247" y="683" on="0"/>
        <pt x="250" y="688" on="1"/>
        <pt x="301" y="848" on="1"/>
        <pt x="301" y="852" on="0"/>
        <pt x="303" y="863" on="0"/>
        <pt x="305" y="868" on="1"/>
        <pt x="307" y="874" on="0"/>
        <pt x="309" y="881" on="1"/>
        <pt x="354" y="1034" on="1"/>
        <pt x="355" y="1034" on="0"/>
        <pt x="364" y="1059" on="0"/>
        <pt x="377" y="1098" on="0"/>
        <pt x="392" y="1146" on="0"/>
        <pt x="406" y="1191" on="0"/>
        <pt x="417" y="1228" on="0"/>
        <pt x="420" y="1237" on="1"/>
        <pt x="481" y="1446" on="1"/>
        <pt x="481" y="1458" on="0"/>
        <pt x="491" y="1472" on="0"/>
        <pt x="507" y="1479" on="0"/>
        <pt x="526" y="1481" on="0"/>
        <pt x="535" y="1481" on="1"/>
        <pt x="529" y="1479" on="0"/>
        <pt x="555" y="1477" on="0"/>
        <pt x="595" y="1476" on="0"/>
        <pt x="634" y="1475" on="0"/>
        <pt x="641" y="1475" on="1"/>
        <pt x="770" y="1475" on="1"/>
        <pt x="1012" y="1475" on="1"/>
        <pt x="1016" y="1473" on="0"/>
        <pt x="1024" y="1473" on="1"/>
        <pt x="1062" y="1473" on="0"/>
        <pt x="1133" y="1475" on="0"/>
        <pt x="1171" y="1475" on="1"/>
        <pt x="1184" y="1475" on="0"/>
        <pt x="1204" y="1471" on="0"/>
        <pt x="1206" y="1464" on="1"/>
        <pt x="1239" y="1362" on="1"/>
        <pt x="1244" y="1355" on="0"/>
        <pt x="1248" y="1337" on="0"/>
        <pt x="1251" y="1317" on="0"/>
        <pt x="1255" y="1299" on="0"/>
        <pt x="1260" y="1292" on="1"/>
        <pt x="1303" y="1159" on="1"/>
        <pt x="1309" y="1151" on="1"/>
        <pt x="1310" y="1148" on="0"/>
        <pt x="1313" y="1134" on="0"/>
        <pt x="1317" y="1117" on="0"/>
        <pt x="1320" y="1103" on="0"/>
        <pt x="1321" y="1100" on="1"/>
        <pt x="1322" y="1100" on="0"/>
        <pt x="1324" y="1098" on="1"/>
        <pt x="1325" y="1097" on="0"/>
        <pt x="1325" y="1096" on="1"/>
        <pt x="1407" y="836" on="1"/>
        <pt x="1468" y="645" on="1"/>
        <pt x="1471" y="634" on="0"/>
        <pt x="1484" y="592" on="0"/>
        <pt x="1500" y="550" on="0"/>
        <pt x="1513" y="519" on="0"/>
        <pt x="1516" y="518" on="1"/>
        <pt x="1614" y="512" on="1"/>
        <pt x="1617" y="510" on="0"/>
        <pt x="1635" y="506" on="0"/>
        <pt x="1638" y="500" on="1"/>
        <pt x="1638" y="441" on="0"/>
        <pt x="1634" y="333" on="0"/>
        <pt x="1634" y="274" on="1"/>
        <pt x="1634" y="222" on="0"/>
        <pt x="1638" y="115" on="0"/>
        <pt x="1638" y="61" on="1"/>
        <pt x="1638" y="50" on="0"/>
        <pt x="1636" y="34" on="0"/>
        <pt x="1636" y="25" on="1"/>
        <pt x="1636" y="16" on="1"/>
        <pt x="1633" y="10" on="0"/>
        <pt x="1628" y="10" on="1"/>
        <pt x="1571" y="4" on="1"/>
        <pt x="1532" y="4" on="0"/>
        <pt x="1439" y="3" on="0"/>
        <pt x="1353" y="3" on="0"/>
        <pt x="1284" y="2" on="0"/>
        <pt x="1268" y="2" on="1"/>
        <pt x="1252" y="2" on="0"/>
        <pt x="1185" y="1" on="0"/>
        <pt x="1118" y="3" on="0"/>
        <pt x="1067" y="10" on="0"/>
        <pt x="1067" y="18" on="1"/>
        <pt x="1016" y="193" on="1"/>
        <pt x="1016" y="201" on="0"/>
        <pt x="1006" y="201" on="1"/>
        <pt x="971" y="201" on="1"/>
        <pt x="937" y="201" on="0"/>
        <pt x="876" y="203" on="0"/>
        <pt x="842" y="203" on="1"/>
        <pt x="808" y="203" on="0"/>
        <pt x="750" y="201" on="0"/>
        <pt x="719" y="201" on="1"/>
        <pt x="686" y="201" on="1"/>
        <pt x="680" y="199" on="0"/>
        <pt x="671" y="197" on="0"/>
        <pt x="668" y="190" on="1"/>
        <pt x="623" y="23" on="1"/>
        <pt x="620" y="19" on="0"/>
        <pt x="618" y="12" on="0"/>
        <pt x="616" y="6" on="0"/>
        <pt x="611" y="3" on="0"/>
        <pt x="604" y="2" on="1"/>
        <pt x="542" y="2" on="0"/>
        <pt x="420" y="4" on="0"/>
        <pt x="358" y="4" on="1"/>
        <pt x="322" y="4" on="0"/>
        <pt x="271" y="3" on="0"/>
        <pt x="228" y="3" on="0"/>
        <pt x="187" y="2" on="0"/>
        <pt x="160" y="2" on="1"/>
        <pt x="146" y="2" on="0"/>
        <pt x="117" y="2" on="0"/>
        <pt x="92" y="4" on="0"/>
        <pt x="74" y="7" on="0"/>
        <pt x="72" y="10" on="1"/>
      </contour>
      <contour>
        <pt x="733" y="575" on="1"/>
        <pt x="733" y="573" on="0"/>
        <pt x="735" y="573" on="1"/>
        <pt x="915" y="573" on="1"/>
        <pt x="917" y="573" on="0"/>
        <pt x="919" y="574" on="1"/>
        <pt x="921" y="574" on="0"/>
        <pt x="923" y="575" on="0"/>
        <pt x="924" y="575" on="1"/>
        <pt x="938" y="573" on="1"/>
        <pt x="935" y="573" on="0"/>
        <pt x="952" y="572" on="0"/>
        <pt x="952" y="575" on="1"/>
        <pt x="952" y="592" on="1"/>
        <pt x="936" y="653" on="1"/>
        <pt x="891" y="809" on="1"/>
        <pt x="891" y="826" on="0"/>
        <pt x="879" y="875" on="0"/>
        <pt x="863" y="925" on="0"/>
        <pt x="846" y="966" on="0"/>
        <pt x="842" y="975" on="1"/>
        <pt x="837" y="975" on="0"/>
        <pt x="833" y="953" on="0"/>
        <pt x="829" y="948" on="1"/>
        <pt x="811" y="870" on="1"/>
        <pt x="807" y="864" on="1"/>
        <pt x="795" y="809" on="1"/>
        <pt x="733" y="586" on="1"/>
        <pt x="733" y="582" on="1"/>
      </contour>
    </TTGlyph>
    <TTGlyph name="l" xMin="31" yMin="-2" xMax="892" yMax="1539">
      <contour>
        <pt x="41" y="0" on="1"/>
        <pt x="35" y="0" on="0"/>
        <pt x="31" y="10" on="0"/>
        <pt x="31" y="16" on="1"/>
        <pt x="31" y="45" on="0"/>
        <pt x="33" y="103" on="0"/>
        <pt x="33" y="132" on="1"/>
        <pt x="33" y="144" on="0"/>
        <pt x="32" y="158" on="0"/>
        <pt x="32" y="167" on="0"/>
        <pt x="31" y="172" on="0"/>
        <pt x="31" y="177" on="1"/>
        <pt x="31" y="179" on="0"/>
        <pt x="33" y="199" on="0"/>
        <pt x="33" y="201" on="1"/>
        <pt x="33" y="380" on="1"/>
        <pt x="33" y="384" on="0"/>
        <pt x="31" y="400" on="0"/>
        <pt x="31" y="403" on="1"/>
        <pt x="31" y="407" on="0"/>
        <pt x="33" y="419" on="0"/>
        <pt x="33" y="421" on="1"/>
        <pt x="39" y="423" on="1"/>
        <pt x="53" y="423" on="0"/>
        <pt x="86" y="424" on="0"/>
        <pt x="117" y="427" on="0"/>
        <pt x="142" y="431" on="0"/>
        <pt x="148" y="434" on="1"/>
        <pt x="153" y="464" on="0"/>
        <pt x="154" y="530" on="0"/>
        <pt x="154" y="562" on="1"/>
        <pt x="154" y="583" on="0"/>
        <pt x="153" y="638" on="0"/>
        <pt x="152" y="691" on="0"/>
        <pt x="151" y="733" on="0"/>
        <pt x="150" y="741" on="1"/>
        <pt x="150" y="743" on="0"/>
        <pt x="152" y="758" on="0"/>
        <pt x="154" y="760" on="1"/>
        <pt x="154" y="1102" on="1"/>
        <pt x="154" y="1106" on="0"/>
        <pt x="118" y="1110" on="0"/>
        <pt x="75" y="1113" on="0"/>
        <pt x="39" y="1116" on="0"/>
        <pt x="39" y="1118" on="1"/>
        <pt x="37" y="1124" on="1"/>
        <pt x="37" y="1149" on="0"/>
        <pt x="33" y="1205" on="0"/>
        <pt x="33" y="1215" on="1"/>
        <pt x="33" y="1228" on="0"/>
        <pt x="37" y="1250" on="0"/>
        <pt x="37" y="1264" on="1"/>
        <pt x="37" y="1293" on="0"/>
        <pt x="33" y="1350" on="0"/>
        <pt x="33" y="1379" on="1"/>
        <pt x="33" y="1381" on="0"/>
        <pt x="35" y="1387" on="0"/>
        <pt x="37" y="1387" on="1"/>
        <pt x="37" y="1421" on="0"/>
        <pt x="33" y="1468" on="0"/>
        <pt x="33" y="1492" on="1"/>
        <pt x="34" y="1493" on="0"/>
        <pt x="35" y="1504" on="0"/>
        <pt x="35" y="1517" on="0"/>
        <pt x="36" y="1529" on="0"/>
        <pt x="37" y="1531" on="1"/>
        <pt x="43" y="1532" on="0"/>
        <pt x="71" y="1533" on="0"/>
        <pt x="103" y="1535" on="0"/>
        <pt x="132" y="1536" on="0"/>
        <pt x="137" y="1537" on="1"/>
        <pt x="155" y="1537" on="0"/>
        <pt x="192" y="1533" on="0"/>
        <pt x="210" y="1533" on="1"/>
        <pt x="216" y="1533" on="0"/>
        <pt x="231" y="1534" on="0"/>
        <pt x="244" y="1536" on="0"/>
        <pt x="254" y="1537" on="0"/>
        <pt x="255" y="1537" on="1"/>
        <pt x="263" y="1537" on="0"/>
        <pt x="278" y="1533" on="0"/>
        <pt x="286" y="1533" on="1"/>
        <pt x="294" y="1533" on="0"/>
        <pt x="297" y="1539" on="0"/>
        <pt x="302" y="1539" on="1"/>
        <pt x="304" y="1539" on="0"/>
        <pt x="308" y="1535" on="0"/>
        <pt x="310" y="1533" on="1"/>
        <pt x="590" y="1533" on="1"/>
        <pt x="597" y="1535" on="0"/>
        <pt x="640" y="1537" on="0"/>
        <pt x="697" y="1537" on="0"/>
        <pt x="760" y="1537" on="0"/>
        <pt x="786" y="1537" on="1"/>
        <pt x="788" y="1537" on="0"/>
        <pt x="797" y="1539" on="0"/>
        <pt x="799" y="1539" on="1"/>
        <pt x="800" y="1538" on="0"/>
        <pt x="802" y="1538" on="1"/>
        <pt x="804" y="1537" on="0"/>
        <pt x="807" y="1537" on="1"/>
        <pt x="821" y="1537" on="0"/>
        <pt x="851" y="1539" on="0"/>
        <pt x="865" y="1539" on="1"/>
        <pt x="878" y="1539" on="0"/>
        <pt x="889" y="1523" on="0"/>
        <pt x="892" y="1501" on="0"/>
        <pt x="891" y="1476" on="0"/>
        <pt x="891" y="1466" on="1"/>
        <pt x="891" y="1403" on="0"/>
        <pt x="889" y="1282" on="0"/>
        <pt x="889" y="1221" on="1"/>
        <pt x="889" y="1159" on="1"/>
        <pt x="889" y="1155" on="0"/>
        <pt x="889" y="1141" on="0"/>
        <pt x="886" y="1128" on="0"/>
        <pt x="881" y="1118" on="0"/>
        <pt x="876" y="1118" on="1"/>
        <pt x="775" y="1106" on="1"/>
        <pt x="767" y="1089" on="1"/>
        <pt x="767" y="1026" on="1"/>
        <pt x="767" y="965" on="0"/>
        <pt x="765" y="847" on="0"/>
        <pt x="765" y="786" on="1"/>
        <pt x="765" y="768" on="0"/>
        <pt x="767" y="731" on="0"/>
        <pt x="767" y="711" on="1"/>
        <pt x="767" y="674" on="0"/>
        <pt x="765" y="599" on="0"/>
        <pt x="765" y="562" on="1"/>
        <pt x="765" y="544" on="0"/>
        <pt x="763" y="502" on="0"/>
        <pt x="764" y="465" on="0"/>
        <pt x="769" y="437" on="0"/>
        <pt x="775" y="434" on="1"/>
        <pt x="818" y="434" on="0"/>
        <pt x="864" y="425" on="0"/>
        <pt x="884" y="410" on="0"/>
        <pt x="885" y="392" on="0"/>
        <pt x="881" y="372" on="0"/>
        <pt x="881" y="352" on="0"/>
        <pt x="889" y="344" on="1"/>
        <pt x="889" y="342" on="1"/>
        <pt x="883" y="310" on="0"/>
        <pt x="880" y="230" on="0"/>
        <pt x="881" y="143" on="0"/>
        <pt x="884" y="51" on="0"/>
        <pt x="884" y="6" on="1"/>
        <pt x="878" y="0" on="1"/>
        <pt x="133" y="-2" on="1"/>
        <pt x="120" y="0" on="0"/>
        <pt x="92" y="2" on="0"/>
        <pt x="78" y="2" on="1"/>
        <pt x="67" y="2" on="0"/>
        <pt x="49" y="0" on="0"/>
      </contour>
    </TTGlyph>
    <TTGlyph name="p" xMin="68" yMin="-23" xMax="1390" yMax="1456">
      <contour>
        <pt x="74" y="-4" on="1"/>
        <pt x="74" y="19" on="0"/>
        <pt x="73" y="82" on="0"/>
        <pt x="72" y="111" on="1"/>
        <pt x="71" y="144" on="0"/>
        <pt x="70" y="180" on="1"/>
        <pt x="70" y="184" on="0"/>
        <pt x="71" y="210" on="0"/>
        <pt x="73" y="240" on="0"/>
        <pt x="74" y="266" on="0"/>
        <pt x="74" y="270" on="1"/>
        <pt x="76" y="296" on="0"/>
        <pt x="70" y="320" on="0"/>
        <pt x="70" y="334" on="1"/>
        <pt x="70" y="363" on="0"/>
        <pt x="92" y="383" on="0"/>
        <pt x="125" y="386" on="0"/>
        <pt x="163" y="383" on="0"/>
        <pt x="180" y="389" on="1"/>
        <pt x="186" y="395" on="1"/>
        <pt x="186" y="1014" on="1"/>
        <pt x="186" y="1031" on="0"/>
        <pt x="153" y="1038" on="0"/>
        <pt x="112" y="1038" on="0"/>
        <pt x="77" y="1038" on="0"/>
        <pt x="76" y="1047" on="1"/>
        <pt x="70" y="1071" on="1"/>
        <pt x="70" y="1231" on="1"/>
        <pt x="72" y="1234" on="0"/>
        <pt x="74" y="1252" on="0"/>
        <pt x="74" y="1255" on="1"/>
        <pt x="74" y="1273" on="0"/>
        <pt x="72" y="1334" on="0"/>
        <pt x="70" y="1395" on="0"/>
        <pt x="68" y="1441" on="0"/>
        <pt x="68" y="1444" on="1"/>
        <pt x="70" y="1447" on="0"/>
        <pt x="90" y="1450" on="0"/>
        <pt x="92" y="1450" on="1"/>
        <pt x="158" y="1450" on="1"/>
        <pt x="160" y="1450" on="0"/>
        <pt x="168" y="1448" on="0"/>
        <pt x="170" y="1448" on="1"/>
        <pt x="173" y="1448" on="0"/>
        <pt x="196" y="1450" on="0"/>
        <pt x="199" y="1450" on="1"/>
        <pt x="537" y="1450" on="1"/>
        <pt x="540" y="1452" on="0"/>
        <pt x="564" y="1454" on="0"/>
        <pt x="569" y="1454" on="1"/>
        <pt x="570" y="1454" on="0"/>
        <pt x="580" y="1450" on="1"/>
        <pt x="611" y="1450" on="0"/>
        <pt x="653" y="1449" on="0"/>
        <pt x="678" y="1454" on="1"/>
        <pt x="938" y="1454" on="1"/>
        <pt x="940" y="1456" on="0"/>
        <pt x="944" y="1456" on="1"/>
        <pt x="1018" y="1456" on="0"/>
        <pt x="1161" y="1450" on="0"/>
        <pt x="1235" y="1450" on="1"/>
        <pt x="1255" y="1450" on="0"/>
        <pt x="1293" y="1454" on="0"/>
        <pt x="1313" y="1454" on="1"/>
        <pt x="1316" y="1454" on="0"/>
        <pt x="1320" y="1453" on="0"/>
        <pt x="1323" y="1450" on="1"/>
        <pt x="1382" y="1448" on="1"/>
        <pt x="1384" y="1448" on="0"/>
        <pt x="1389" y="1428" on="0"/>
        <pt x="1389" y="1423" on="1"/>
        <pt x="1389" y="1360" on="0"/>
        <pt x="1382" y="1241" on="0"/>
        <pt x="1382" y="1178" on="1"/>
        <pt x="1382" y="1137" on="0"/>
        <pt x="1389" y="1056" on="0"/>
        <pt x="1389" y="1016" on="1"/>
        <pt x="1389" y="1006" on="0"/>
        <pt x="1390" y="979" on="0"/>
        <pt x="1389" y="955" on="0"/>
        <pt x="1383" y="938" on="0"/>
        <pt x="1376" y="938" on="1"/>
        <pt x="1367" y="938" on="0"/>
        <pt x="1345" y="944" on="0"/>
        <pt x="1337" y="950" on="1"/>
        <pt x="1277" y="971" on="0"/>
        <pt x="1143" y="1004" on="0"/>
        <pt x="1011" y="1028" on="0"/>
        <pt x="891" y="1040" on="0"/>
        <pt x="844" y="1040" on="1"/>
        <pt x="766" y="1040" on="1"/>
        <pt x="764" y="1040" on="0"/>
        <pt x="762" y="1039" on="1"/>
        <pt x="758" y="1037" on="0"/>
        <pt x="758" y="1036" on="1"/>
        <pt x="758" y="840" on="1"/>
        <pt x="762" y="836" on="1"/>
        <pt x="763" y="835" on="0"/>
        <pt x="765" y="835" on="1"/>
        <pt x="767" y="834" on="0"/>
        <pt x="770" y="834" on="1"/>
        <pt x="786" y="834" on="0"/>
        <pt x="830" y="841" on="0"/>
        <pt x="844" y="846" on="1"/>
        <pt x="848" y="846" on="0"/>
        <pt x="868" y="852" on="0"/>
        <pt x="893" y="860" on="0"/>
        <pt x="922" y="866" on="0"/>
        <pt x="936" y="866" on="1"/>
        <pt x="941" y="868" on="0"/>
        <pt x="943" y="870" on="0"/>
        <pt x="948" y="870" on="1"/>
        <pt x="970" y="870" on="0"/>
        <pt x="1010" y="878" on="0"/>
        <pt x="1047" y="889" on="0"/>
        <pt x="1082" y="897" on="0"/>
        <pt x="1100" y="897" on="1"/>
        <pt x="1115" y="897" on="0"/>
        <pt x="1122" y="878" on="0"/>
        <pt x="1122" y="864" on="1"/>
        <pt x="1122" y="833" on="0"/>
        <pt x="1120" y="770" on="0"/>
        <pt x="1120" y="741" on="1"/>
        <pt x="1120" y="704" on="0"/>
        <pt x="1122" y="633" on="0"/>
        <pt x="1122" y="598" on="1"/>
        <pt x="1122" y="586" on="0"/>
        <pt x="1124" y="559" on="0"/>
        <pt x="1122" y="535" on="0"/>
        <pt x="1114" y="518" on="0"/>
        <pt x="1104" y="516" on="1"/>
        <pt x="1026" y="532" on="1"/>
        <pt x="879" y="561" on="1"/>
        <pt x="875" y="563" on="0"/>
        <pt x="857" y="568" on="0"/>
        <pt x="838" y="572" on="0"/>
        <pt x="819" y="575" on="0"/>
        <pt x="815" y="575" on="1"/>
        <pt x="813" y="575" on="0"/>
        <pt x="809" y="573" on="0"/>
        <pt x="809" y="571" on="1"/>
        <pt x="809" y="410" on="1"/>
        <pt x="809" y="401" on="0"/>
        <pt x="833" y="396" on="0"/>
        <pt x="869" y="395" on="0"/>
        <pt x="911" y="396" on="0"/>
        <pt x="947" y="390" on="0"/>
        <pt x="971" y="374" on="0"/>
        <pt x="971" y="358" on="1"/>
        <pt x="971" y="350" on="0"/>
        <pt x="969" y="332" on="0"/>
        <pt x="969" y="326" on="1"/>
        <pt x="969" y="-8" on="1"/>
        <pt x="969" y="-14" on="0"/>
        <pt x="947" y="-16" on="0"/>
        <pt x="944" y="-16" on="1"/>
        <pt x="941" y="-16" on="0"/>
        <pt x="928" y="-14" on="0"/>
        <pt x="926" y="-14" on="1"/>
        <pt x="731" y="-14" on="0"/>
        <pt x="351" y="-23" on="0"/>
        <pt x="156" y="-23" on="1"/>
        <pt x="146" y="-23" on="0"/>
        <pt x="120" y="-23" on="0"/>
        <pt x="107" y="-22" on="1"/>
        <pt x="92" y="-21" on="0"/>
        <pt x="76" y="-20" on="1"/>
        <pt x="74" y="-4" on="1"/>
      </contour>
    </TTGlyph>
    <TTGlyph name="period" xMin="66" yMin="-2" xMax="659" yMax="453">
      <contour>
        <pt x="127" y="12" on="1"/>
        <pt x="127" y="17" on="0"/>
        <pt x="126" y="18" on="0"/>
        <pt x="123" y="18" on="1"/>
        <pt x="115" y="18" on="1"/>
        <pt x="115" y="13" on="0"/>
        <pt x="117" y="7" on="0"/>
        <pt x="117" y="2" on="1"/>
        <pt x="76" y="2" on="1"/>
        <pt x="74" y="5" on="0"/>
        <pt x="73" y="8" on="1"/>
        <pt x="70" y="12" on="0"/>
        <pt x="70" y="18" on="1"/>
        <pt x="70" y="129" on="1"/>
        <pt x="74" y="141" on="1"/>
        <pt x="80" y="141" on="0"/>
        <pt x="81" y="129" on="0"/>
        <pt x="90" y="129" on="1"/>
        <pt x="100" y="129" on="0"/>
        <pt x="100" y="137" on="1"/>
        <pt x="100" y="139" on="0"/>
        <pt x="81" y="158" on="0"/>
        <pt x="78" y="164" on="1"/>
        <pt x="72" y="189" on="0"/>
        <pt x="67" y="253" on="0"/>
        <pt x="66" y="320" on="0"/>
        <pt x="68" y="383" on="0"/>
        <pt x="68" y="408" on="1"/>
        <pt x="68" y="410" on="0"/>
        <pt x="74" y="435" on="0"/>
        <pt x="74" y="444" on="1"/>
        <pt x="78" y="446" on="1"/>
        <pt x="90" y="446" on="0"/>
        <pt x="119" y="448" on="0"/>
        <pt x="146" y="449" on="0"/>
        <pt x="167" y="451" on="0"/>
        <pt x="170" y="451" on="1"/>
        <pt x="176" y="451" on="0"/>
        <pt x="186" y="446" on="0"/>
        <pt x="193" y="446" on="1"/>
        <pt x="214" y="446" on="0"/>
        <pt x="258" y="451" on="0"/>
        <pt x="281" y="451" on="1"/>
        <pt x="275" y="448" on="0"/>
        <pt x="294" y="447" on="0"/>
        <pt x="322" y="446" on="0"/>
        <pt x="348" y="445" on="0"/>
        <pt x="348" y="442" on="1"/>
        <pt x="348" y="437" on="0"/>
        <pt x="346" y="424" on="0"/>
        <pt x="346" y="416" on="1"/>
        <pt x="346" y="413" on="0"/>
        <pt x="347" y="412" on="1"/>
        <pt x="347" y="411" on="0"/>
        <pt x="348" y="410" on="1"/>
        <pt x="360" y="410" on="0"/>
        <pt x="367" y="418" on="0"/>
        <pt x="370" y="428" on="0"/>
        <pt x="374" y="436" on="0"/>
        <pt x="381" y="436" on="1"/>
        <pt x="381" y="438" on="0"/>
        <pt x="390" y="434" on="0"/>
        <pt x="395" y="434" on="1"/>
        <pt x="399" y="434" on="0"/>
        <pt x="402" y="439" on="0"/>
        <pt x="405" y="444" on="0"/>
        <pt x="411" y="449" on="0"/>
        <pt x="418" y="449" on="1"/>
        <pt x="432" y="449" on="0"/>
        <pt x="447" y="432" on="0"/>
        <pt x="457" y="432" on="1"/>
        <pt x="459" y="432" on="0"/>
        <pt x="459" y="436" on="1"/>
        <pt x="459" y="442" on="0"/>
        <pt x="457" y="446" on="1"/>
        <pt x="457" y="450" on="0"/>
        <pt x="483" y="453" on="0"/>
        <pt x="494" y="453" on="1"/>
        <pt x="651" y="453" on="1"/>
        <pt x="659" y="453" on="0"/>
        <pt x="659" y="444" on="1"/>
        <pt x="659" y="14" on="1"/>
        <pt x="653" y="2" on="1"/>
        <pt x="571" y="2" on="1"/>
        <pt x="550" y="2" on="0"/>
        <pt x="529" y="17" on="0"/>
        <pt x="515" y="36" on="0"/>
        <pt x="502" y="51" on="0"/>
        <pt x="487" y="51" on="1"/>
        <pt x="484" y="51" on="0"/>
        <pt x="479" y="50" on="0"/>
        <pt x="479" y="45" on="1"/>
        <pt x="479" y="42" on="0"/>
        <pt x="486" y="39" on="0"/>
        <pt x="493" y="34" on="0"/>
        <pt x="500" y="26" on="0"/>
        <pt x="500" y="18" on="1"/>
        <pt x="500" y="12" on="0"/>
        <pt x="498" y="8" on="0"/>
        <pt x="492" y="8" on="1"/>
        <pt x="479" y="8" on="0"/>
        <pt x="473" y="34" on="0"/>
        <pt x="473" y="43" on="1"/>
        <pt x="462" y="43" on="0"/>
        <pt x="442" y="31" on="0"/>
        <pt x="442" y="20" on="1"/>
        <pt x="442" y="15" on="0"/>
        <pt x="449" y="13" on="0"/>
        <pt x="449" y="10" on="1"/>
        <pt x="449" y="4" on="0"/>
        <pt x="433" y="8" on="0"/>
        <pt x="430" y="6" on="1"/>
        <pt x="404" y="1" on="0"/>
        <pt x="348" y="-2" on="0"/>
        <pt x="289" y="-1" on="0"/>
        <pt x="228" y="2" on="0"/>
        <pt x="197" y="2" on="1"/>
        <pt x="194" y="2" on="0"/>
        <pt x="177" y="0" on="0"/>
        <pt x="174" y="0" on="1"/>
        <pt x="172" y="0" on="0"/>
        <pt x="158" y="1" on="0"/>
        <pt x="143" y="1" on="0"/>
        <pt x="129" y="2" on="0"/>
        <pt x="127" y="2" on="1"/>
      </contour>
      <contour>
        <pt x="565" y="9" on="1"/>
        <pt x="565" y="9" on="0"/>
        <pt x="563" y="10" on="1"/>
        <pt x="563" y="8" on="1"/>
        <pt x="563" y="6" on="1"/>
        <pt x="565" y="6" on="0"/>
        <pt x="565" y="8" on="1"/>
      </contour>
      <contour>
        <pt x="174" y="25" on="1"/>
        <pt x="176" y="20" on="0"/>
        <pt x="180" y="20" on="1"/>
        <pt x="183" y="20" on="0"/>
        <pt x="186" y="27" on="0"/>
        <pt x="186" y="29" on="1"/>
        <pt x="186" y="38" on="0"/>
        <pt x="172" y="49" on="0"/>
        <pt x="164" y="49" on="1"/>
        <pt x="153" y="49" on="0"/>
        <pt x="150" y="37" on="0"/>
        <pt x="145" y="25" on="1"/>
      </contour>
      <contour>
        <pt x="100" y="35" on="1"/>
        <pt x="101" y="34" on="0"/>
        <pt x="103" y="34" on="1"/>
        <pt x="105" y="33" on="0"/>
        <pt x="109" y="33" on="1"/>
        <pt x="112" y="33" on="0"/>
        <pt x="113" y="37" on="0"/>
        <pt x="113" y="39" on="1"/>
        <pt x="113" y="42" on="0"/>
        <pt x="108" y="53" on="0"/>
        <pt x="104" y="53" on="1"/>
        <pt x="101" y="53" on="0"/>
        <pt x="100" y="49" on="0"/>
        <pt x="100" y="47" on="1"/>
      </contour>
      <contour>
        <pt x="133" y="106" on="1"/>
        <pt x="133" y="96" on="0"/>
        <pt x="143" y="96" on="1"/>
        <pt x="145" y="96" on="0"/>
        <pt x="152" y="97" on="0"/>
        <pt x="152" y="100" on="1"/>
        <pt x="152" y="107" on="0"/>
        <pt x="136" y="106" on="0"/>
      </contour>
      <contour>
        <pt x="522" y="131" on="1"/>
        <pt x="522" y="129" on="0"/>
        <pt x="523" y="123" on="0"/>
        <pt x="526" y="123" on="1"/>
        <pt x="532" y="125" on="0"/>
        <pt x="536" y="129" on="1"/>
        <pt x="540" y="131" on="0"/>
        <pt x="547" y="138" on="0"/>
        <pt x="549" y="141" on="1"/>
        <pt x="549" y="145" on="0"/>
        <pt x="545" y="145" on="1"/>
        <pt x="539" y="145" on="0"/>
        <pt x="522" y="139" on="0"/>
      </contour>
      <contour>
        <pt x="119" y="147" on="1"/>
        <pt x="119" y="143" on="0"/>
        <pt x="123" y="143" on="1"/>
        <pt x="126" y="143" on="0"/>
        <pt x="133" y="148" on="0"/>
        <pt x="133" y="152" on="1"/>
        <pt x="131" y="152" on="0"/>
        <pt x="128" y="156" on="0"/>
        <pt x="123" y="156" on="1"/>
        <pt x="121" y="154" on="1"/>
        <pt x="119" y="152" on="0"/>
        <pt x="119" y="150" on="1"/>
      </contour>
      <contour>
        <pt x="637" y="190" on="1"/>
        <pt x="637" y="188" on="0"/>
        <pt x="638" y="184" on="0"/>
        <pt x="641" y="182" on="1"/>
        <pt x="643" y="184" on="1"/>
        <pt x="643" y="190" on="0"/>
      </contour>
      <contour>
        <pt x="383" y="229" on="1"/>
        <pt x="383" y="225" on="0"/>
        <pt x="400" y="210" on="0"/>
        <pt x="421" y="195" on="0"/>
        <pt x="440" y="184" on="0"/>
        <pt x="442" y="184" on="1"/>
        <pt x="455" y="184" on="0"/>
        <pt x="455" y="197" on="1"/>
        <pt x="447" y="206" on="0"/>
        <pt x="430" y="225" on="0"/>
        <pt x="424" y="236" on="1"/>
        <pt x="419" y="242" on="0"/>
        <pt x="415" y="268" on="0"/>
        <pt x="410" y="268" on="1"/>
        <pt x="407" y="268" on="0"/>
        <pt x="398" y="258" on="0"/>
        <pt x="389" y="244" on="0"/>
        <pt x="383" y="232" on="0"/>
      </contour>
      <contour>
        <pt x="248" y="199" on="1"/>
        <pt x="248" y="188" on="0"/>
        <pt x="250" y="188" on="1"/>
        <pt x="268" y="188" on="1"/>
        <pt x="269" y="195" on="0"/>
        <pt x="276" y="201" on="0"/>
        <pt x="284" y="205" on="0"/>
        <pt x="291" y="210" on="0"/>
        <pt x="291" y="215" on="1"/>
        <pt x="291" y="223" on="0"/>
        <pt x="281" y="234" on="0"/>
        <pt x="281" y="242" on="1"/>
        <pt x="281" y="249" on="0"/>
        <pt x="290" y="254" on="0"/>
        <pt x="300" y="257" on="0"/>
        <pt x="309" y="260" on="0"/>
        <pt x="309" y="266" on="1"/>
        <pt x="309" y="269" on="0"/>
        <pt x="304" y="281" on="0"/>
        <pt x="301" y="281" on="1"/>
        <pt x="270" y="281" on="1"/>
        <pt x="265" y="276" on="0"/>
        <pt x="250" y="274" on="0"/>
        <pt x="250" y="266" on="1"/>
        <pt x="250" y="261" on="0"/>
        <pt x="251" y="256" on="0"/>
        <pt x="256" y="254" on="1"/>
        <pt x="258" y="238" on="0"/>
        <pt x="248" y="213" on="0"/>
      </contour>
      <contour>
        <pt x="506" y="199" on="1"/>
        <pt x="506" y="197" on="0"/>
        <pt x="513" y="195" on="0"/>
        <pt x="516" y="195" on="1"/>
        <pt x="520" y="195" on="0"/>
        <pt x="520" y="199" on="1"/>
        <pt x="518" y="201" on="1"/>
        <pt x="516" y="203" on="0"/>
        <pt x="514" y="203" on="1"/>
        <pt x="512" y="203" on="0"/>
        <pt x="506" y="201" on="0"/>
      </contour>
      <contour>
        <pt x="315" y="225" on="1"/>
        <pt x="315" y="213" on="0"/>
        <pt x="326" y="213" on="1"/>
        <pt x="326" y="218" on="0"/>
        <pt x="320" y="225" on="0"/>
      </contour>
      <contour>
        <pt x="498" y="260" on="1"/>
        <pt x="498" y="257" on="0"/>
        <pt x="501" y="250" on="0"/>
        <pt x="504" y="250" on="1"/>
        <pt x="504" y="260" on="1"/>
      </contour>
      <contour>
        <pt x="406" y="279" on="1"/>
        <pt x="410" y="279" on="0"/>
        <pt x="425" y="277" on="0"/>
        <pt x="442" y="276" on="0"/>
        <pt x="454" y="275" on="0"/>
        <pt x="455" y="276" on="1"/>
        <pt x="455" y="297" on="1"/>
        <pt x="455" y="301" on="0"/>
        <pt x="459" y="301" on="1"/>
        <pt x="465" y="301" on="0"/>
        <pt x="470" y="295" on="0"/>
        <pt x="475" y="295" on="1"/>
        <pt x="480" y="295" on="0"/>
        <pt x="500" y="297" on="0"/>
        <pt x="500" y="303" on="1"/>
        <pt x="500" y="311" on="0"/>
        <pt x="481" y="315" on="0"/>
        <pt x="475" y="315" on="1"/>
        <pt x="470" y="315" on="0"/>
        <pt x="460" y="314" on="0"/>
        <pt x="457" y="309" on="1"/>
        <pt x="414" y="309" on="1"/>
        <pt x="409" y="309" on="0"/>
        <pt x="405" y="295" on="0"/>
        <pt x="405" y="280" on="0"/>
        <pt x="406" y="273" on="0"/>
      </contour>
      <contour>
        <pt x="154" y="289" on="1"/>
        <pt x="154" y="285" on="0"/>
        <pt x="158" y="285" on="1"/>
        <pt x="161" y="285" on="0"/>
        <pt x="170" y="286" on="0"/>
        <pt x="170" y="289" on="1"/>
      </contour>
      <contour>
        <pt x="602" y="377" on="1"/>
        <pt x="602" y="375" on="0"/>
        <pt x="603" y="374" on="1"/>
        <pt x="603" y="373" on="0"/>
        <pt x="604" y="373" on="1"/>
        <pt x="616" y="358" on="1"/>
        <pt x="619" y="357" on="0"/>
        <pt x="628" y="360" on="0"/>
        <pt x="637" y="366" on="0"/>
        <pt x="643" y="373" on="0"/>
        <pt x="643" y="377" on="1"/>
        <pt x="643" y="382" on="0"/>
        <pt x="640" y="383" on="0"/>
        <pt x="637" y="383" on="1"/>
        <pt x="631" y="383" on="0"/>
        <pt x="625" y="381" on="0"/>
        <pt x="618" y="381" on="1"/>
        <pt x="615" y="381" on="0"/>
        <pt x="611" y="383" on="0"/>
        <pt x="608" y="383" on="1"/>
        <pt x="603" y="383" on="0"/>
        <pt x="602" y="379" on="0"/>
      </contour>
      <contour>
        <pt x="283" y="383" on="1"/>
        <pt x="287" y="383" on="0"/>
        <pt x="287" y="385" on="1"/>
        <pt x="283" y="385" on="1"/>
      </contour>
      <contour>
        <pt x="440" y="393" on="1"/>
        <pt x="440" y="387" on="0"/>
        <pt x="458" y="381" on="0"/>
        <pt x="461" y="381" on="1"/>
        <pt x="461" y="389" on="0"/>
        <pt x="447" y="392" on="0"/>
        <pt x="442" y="397" on="1"/>
        <pt x="440" y="395" on="0"/>
      </contour>
    </TTGlyph>
    <TTGlyph name="q" xMin="68" yMin="-16" xMax="1624" yMax="1458">
      <contour>
        <pt x="70" y="188" on="1"/>
        <pt x="70" y="190" on="0"/>
        <pt x="68" y="202" on="0"/>
        <pt x="68" y="205" on="1"/>
        <pt x="68" y="240" on="0"/>
        <pt x="70" y="309" on="0"/>
        <pt x="70" y="344" on="1"/>
        <pt x="70" y="379" on="1"/>
        <pt x="73" y="384" on="0"/>
        <pt x="81" y="385" on="0"/>
        <pt x="86" y="387" on="1"/>
        <pt x="178" y="393" on="1"/>
        <pt x="181" y="395" on="0"/>
        <pt x="184" y="406" on="0"/>
        <pt x="186" y="408" on="1"/>
        <pt x="186" y="442" on="0"/>
        <pt x="185" y="501" on="0"/>
        <pt x="183" y="556" on="0"/>
        <pt x="182" y="608" on="0"/>
        <pt x="182" y="637" on="1"/>
        <pt x="182" y="665" on="0"/>
        <pt x="186" y="722" on="0"/>
        <pt x="186" y="750" on="1"/>
        <pt x="186" y="821" on="0"/>
        <pt x="182" y="959" on="0"/>
        <pt x="182" y="1028" on="1"/>
        <pt x="179" y="1043" on="0"/>
        <pt x="143" y="1041" on="0"/>
        <pt x="101" y="1040" on="0"/>
        <pt x="68" y="1059" on="0"/>
        <pt x="68" y="1096" on="1"/>
        <pt x="70" y="1450" on="1"/>
        <pt x="93" y="1452" on="0"/>
        <pt x="138" y="1452" on="0"/>
        <pt x="160" y="1452" on="1"/>
        <pt x="270" y="1452" on="1"/>
        <pt x="293" y="1452" on="0"/>
        <pt x="339" y="1452" on="0"/>
        <pt x="362" y="1454" on="1"/>
        <pt x="850" y="1454" on="1"/>
        <pt x="864" y="1457" on="0"/>
        <pt x="890" y="1458" on="0"/>
        <pt x="905" y="1458" on="1"/>
        <pt x="955" y="1458" on="0"/>
        <pt x="1055" y="1456" on="0"/>
        <pt x="1155" y="1447" on="0"/>
        <pt x="1253" y="1428" on="0"/>
        <pt x="1300" y="1411" on="1"/>
        <pt x="1308" y="1408" on="0"/>
        <pt x="1327" y="1398" on="0"/>
        <pt x="1347" y="1387" on="0"/>
        <pt x="1364" y="1380" on="0"/>
        <pt x="1370" y="1380" on="1"/>
        <pt x="1372" y="1380" on="1"/>
        <pt x="1426" y="1346" on="0"/>
        <pt x="1508" y="1252" on="0"/>
        <pt x="1528" y="1190" on="1"/>
        <pt x="1528" y="1186" on="1"/>
        <pt x="1528" y="1187" on="0"/>
        <pt x="1531" y="1172" on="0"/>
        <pt x="1536" y="1146" on="0"/>
        <pt x="1542" y="1116" on="0"/>
        <pt x="1544" y="1104" on="1"/>
        <pt x="1544" y="1103" on="0"/>
        <pt x="1547" y="1081" on="0"/>
        <pt x="1547" y="1041" on="0"/>
        <pt x="1540" y="986" on="0"/>
        <pt x="1530" y="952" on="1"/>
        <pt x="1523" y="930" on="0"/>
        <pt x="1486" y="869" on="0"/>
        <pt x="1437" y="814" on="0"/>
        <pt x="1378" y="776" on="0"/>
        <pt x="1348" y="776" on="1"/>
        <pt x="1343" y="776" on="1"/>
        <pt x="1296" y="762" on="1"/>
        <pt x="1295" y="757" on="0"/>
        <pt x="1303" y="751" on="0"/>
        <pt x="1314" y="747" on="0"/>
        <pt x="1328" y="745" on="0"/>
        <pt x="1333" y="745" on="1"/>
        <pt x="1343" y="745" on="1"/>
        <pt x="1400" y="736" on="0"/>
        <pt x="1502" y="690" on="0"/>
        <pt x="1579" y="611" on="0"/>
        <pt x="1624" y="495" on="0"/>
        <pt x="1624" y="416" on="1"/>
        <pt x="1624" y="396" on="0"/>
        <pt x="1618" y="359" on="0"/>
        <pt x="1618" y="340" on="1"/>
        <pt x="1618" y="330" on="1"/>
        <pt x="1589" y="231" on="1"/>
        <pt x="1586" y="219" on="0"/>
        <pt x="1579" y="214" on="0"/>
        <pt x="1573" y="205" on="1"/>
        <pt x="1526" y="133" on="0"/>
        <pt x="1381" y="31" on="0"/>
        <pt x="1296" y="14" on="1"/>
        <pt x="1180" y="-8" on="1"/>
        <pt x="1169" y="-8" on="1"/>
        <pt x="1143" y="-8" on="0"/>
        <pt x="1092" y="-16" on="0"/>
        <pt x="1067" y="-16" on="1"/>
        <pt x="1032" y="-16" on="0"/>
        <pt x="968" y="-10" on="0"/>
        <pt x="928" y="-10" on="1"/>
        <pt x="926" y="-10" on="0"/>
        <pt x="911" y="-12" on="0"/>
        <pt x="909" y="-12" on="1"/>
        <pt x="584" y="-12" on="1"/>
        <pt x="550" y="-15" on="0"/>
        <pt x="499" y="-16" on="0"/>
        <pt x="465" y="-16" on="1"/>
        <pt x="431" y="-16" on="0"/>
        <pt x="366" y="-12" on="0"/>
        <pt x="334" y="-12" on="1"/>
        <pt x="333" y="-13" on="0"/>
        <pt x="324" y="-14" on="0"/>
        <pt x="314" y="-14" on="0"/>
        <pt x="304" y="-15" on="0"/>
        <pt x="303" y="-16" on="1"/>
        <pt x="70" y="-16" on="1"/>
      </contour>
      <contour>
        <pt x="793" y="340" on="1"/>
        <pt x="930" y="340" on="1"/>
        <pt x="960" y="340" on="0"/>
        <pt x="996" y="365" on="0"/>
        <pt x="1016" y="403" on="0"/>
        <pt x="1022" y="448" on="0"/>
        <pt x="1022" y="467" on="1"/>
        <pt x="1022" y="539" on="0"/>
        <pt x="951" y="608" on="0"/>
        <pt x="895" y="608" on="1"/>
        <pt x="788" y="608" on="1"/>
        <pt x="788" y="485" on="1"/>
        <pt x="788" y="483" on="0"/>
        <pt x="791" y="479" on="0"/>
        <pt x="791" y="477" on="1"/>
        <pt x="791" y="475" on="0"/>
        <pt x="788" y="471" on="0"/>
        <pt x="788" y="469" on="1"/>
        <pt x="788" y="346" on="1"/>
      </contour>
      <contour>
        <pt x="563" y="821" on="1"/>
        <pt x="561" y="821" on="0"/>
        <pt x="561" y="819" on="1"/>
        <pt x="563" y="819" on="1"/>
        <pt x="565" y="819" on="1"/>
        <pt x="565" y="820" on="0"/>
        <pt x="564" y="821" on="1"/>
      </contour>
      <contour>
        <pt x="737" y="1032" on="1"/>
        <pt x="737" y="996" on="0"/>
        <pt x="738" y="945" on="0"/>
        <pt x="738" y="908" on="0"/>
        <pt x="739" y="882" on="0"/>
        <pt x="739" y="870" on="1"/>
        <pt x="743" y="868" on="1"/>
        <pt x="750" y="867" on="0"/>
        <pt x="757" y="867" on="1"/>
        <pt x="762" y="866" on="0"/>
        <pt x="774" y="866" on="0"/>
        <pt x="778" y="866" on="1"/>
        <pt x="818" y="866" on="0"/>
        <pt x="888" y="872" on="0"/>
        <pt x="941" y="898" on="0"/>
        <pt x="971" y="951" on="0"/>
        <pt x="971" y="997" on="1"/>
        <pt x="971" y="1033" on="0"/>
        <pt x="950" y="1082" on="0"/>
        <pt x="912" y="1112" on="0"/>
        <pt x="858" y="1125" on="0"/>
        <pt x="825" y="1126" on="1"/>
        <pt x="820" y="1126" on="0"/>
        <pt x="797" y="1125" on="0"/>
        <pt x="771" y="1124" on="0"/>
        <pt x="748" y="1123" on="0"/>
        <pt x="743" y="1122" on="1"/>
        <pt x="740" y="1120" on="0"/>
        <pt x="737" y="1099" on="0"/>
        <pt x="737" y="1071" on="0"/>
        <pt x="737" y="1041" on="0"/>
      </contour>
      <contour>
        <pt x="1468" y="956" on="1"/>
        <pt x="1470" y="956" on="1"/>
        <pt x="1468" y="958" on="1"/>
      </contour>
    </TTGlyph>
    <TTGlyph name="r" xMin="53" yMin="-14" xMax="1626" yMax="1462">
      <contour>
        <pt x="55" y="-8" on="1"/>
        <pt x="55" y="-6" on="0"/>
        <pt x="54" y="6" on="0"/>
        <pt x="54" y="19" on="0"/>
        <pt x="53" y="32" on="0"/>
        <pt x="53" y="35" on="1"/>
        <pt x="53" y="37" on="0"/>
        <pt x="55" y="45" on="0"/>
        <pt x="55" y="47" on="1"/>
        <pt x="55" y="293" on="1"/>
        <pt x="57" y="298" on="0"/>
        <pt x="57" y="320" on="0"/>
        <pt x="59" y="324" on="1"/>
        <pt x="59" y="347" on="0"/>
        <pt x="55" y="391" on="0"/>
        <pt x="55" y="414" on="1"/>
        <pt x="55" y="425" on="0"/>
        <pt x="55" y="451" on="0"/>
        <pt x="55" y="473" on="0"/>
        <pt x="58" y="487" on="0"/>
        <pt x="61" y="487" on="1"/>
        <pt x="172" y="500" on="1"/>
        <pt x="182" y="503" on="0"/>
        <pt x="184" y="510" on="1"/>
        <pt x="360" y="1092" on="1"/>
        <pt x="362" y="1097" on="0"/>
        <pt x="363" y="1107" on="0"/>
        <pt x="367" y="1110" on="1"/>
        <pt x="420" y="1292" on="1"/>
        <pt x="471" y="1454" on="1"/>
        <pt x="472" y="1456" on="0"/>
        <pt x="497" y="1459" on="0"/>
        <pt x="529" y="1461" on="0"/>
        <pt x="562" y="1462" on="0"/>
        <pt x="573" y="1462" on="1"/>
        <pt x="599" y="1462" on="0"/>
        <pt x="652" y="1458" on="0"/>
        <pt x="678" y="1458" on="1"/>
        <pt x="685" y="1459" on="0"/>
        <pt x="691" y="1460" on="1"/>
        <pt x="696" y="1461" on="0"/>
        <pt x="705" y="1462" on="0"/>
        <pt x="707" y="1462" on="1"/>
        <pt x="724" y="1462" on="0"/>
        <pt x="761" y="1459" on="0"/>
        <pt x="778" y="1456" on="1"/>
        <pt x="1186" y="1456" on="1"/>
        <pt x="1192" y="1456" on="0"/>
        <pt x="1198" y="1441" on="0"/>
        <pt x="1198" y="1438" on="1"/>
        <pt x="1225" y="1358" on="1"/>
        <pt x="1225" y="1359" on="0"/>
        <pt x="1229" y="1346" on="0"/>
        <pt x="1235" y="1327" on="0"/>
        <pt x="1241" y="1305" on="0"/>
        <pt x="1243" y="1298" on="1"/>
        <pt x="1243" y="1296" on="0"/>
        <pt x="1241" y="1294" on="0"/>
        <pt x="1241" y="1292" on="1"/>
        <pt x="1241" y="1285" on="0"/>
        <pt x="1247" y="1282" on="1"/>
        <pt x="1337" y="1006" on="1"/>
        <pt x="1384" y="856" on="1"/>
        <pt x="1391" y="846" on="1"/>
        <pt x="1396" y="822" on="0"/>
        <pt x="1415" y="765" on="0"/>
        <pt x="1433" y="713" on="0"/>
        <pt x="1446" y="672" on="0"/>
        <pt x="1446" y="664" on="1"/>
        <pt x="1501" y="500" on="1"/>
        <pt x="1616" y="489" on="1"/>
        <pt x="1626" y="489" on="0"/>
        <pt x="1626" y="479" on="1"/>
        <pt x="1626" y="205" on="1"/>
        <pt x="1624" y="203" on="0"/>
        <pt x="1624" y="195" on="0"/>
        <pt x="1624" y="193" on="1"/>
        <pt x="1624" y="189" on="0"/>
        <pt x="1624" y="176" on="0"/>
        <pt x="1626" y="174" on="1"/>
        <pt x="1626" y="10" on="1"/>
        <pt x="1626" y="-2" on="0"/>
        <pt x="1604" y="-10" on="0"/>
        <pt x="1591" y="-10" on="1"/>
        <pt x="1573" y="-10" on="0"/>
        <pt x="1550" y="-6" on="0"/>
        <pt x="1542" y="-6" on="1"/>
        <pt x="1481" y="-6" on="0"/>
        <pt x="1357" y="-8" on="0"/>
        <pt x="1238" y="-10" on="0"/>
        <pt x="1128" y="-12" on="0"/>
        <pt x="1081" y="-12" on="1"/>
        <pt x="1067" y="-12" on="0"/>
        <pt x="1056" y="2" on="0"/>
        <pt x="1053" y="14" on="1"/>
        <pt x="1028" y="106" on="1"/>
        <pt x="1012" y="170" on="1"/>
        <pt x="1012" y="184" on="1"/>
        <pt x="1003" y="185" on="0"/>
        <pt x="960" y="186" on="0"/>
        <pt x="914" y="187" on="0"/>
        <pt x="876" y="190" on="0"/>
        <pt x="872" y="193" on="1"/>
        <pt x="668" y="193" on="1"/>
        <pt x="659" y="184" on="1"/>
        <pt x="602" y="-4" on="1"/>
        <pt x="598" y="-8" on="1"/>
        <pt x="465" y="-8" on="0"/>
        <pt x="203" y="-14" on="0"/>
        <pt x="70" y="-14" on="1"/>
        <pt x="67" y="-14" on="0"/>
        <pt x="57" y="-13" on="0"/>
      </contour>
      <contour>
        <pt x="1587" y="137" on="1"/>
        <pt x="1586" y="137" on="0"/>
        <pt x="1585" y="136" on="1"/>
        <pt x="1585" y="135" on="1"/>
        <pt x="1585" y="133" on="1"/>
        <pt x="1587" y="133" on="0"/>
        <pt x="1589" y="135" on="1"/>
      </contour>
      <contour>
        <pt x="1169" y="498" on="1"/>
        <pt x="1174" y="498" on="1"/>
        <pt x="1169" y="500" on="1"/>
      </contour>
      <contour>
        <pt x="733" y="561" on="1"/>
        <pt x="742" y="561" on="0"/>
        <pt x="782" y="560" on="0"/>
        <pt x="828" y="560" on="0"/>
        <pt x="868" y="559" on="0"/>
        <pt x="877" y="559" on="1"/>
        <pt x="879" y="560" on="0"/>
        <pt x="900" y="558" on="0"/>
        <pt x="923" y="558" on="0"/>
        <pt x="942" y="559" on="0"/>
        <pt x="942" y="563" on="1"/>
        <pt x="942" y="569" on="0"/>
        <pt x="939" y="592" on="0"/>
        <pt x="933" y="619" on="0"/>
        <pt x="926" y="645" on="0"/>
        <pt x="922" y="653" on="1"/>
        <pt x="881" y="797" on="1"/>
        <pt x="854" y="897" on="1"/>
        <pt x="852" y="900" on="0"/>
        <pt x="847" y="920" on="0"/>
        <pt x="840" y="941" on="0"/>
        <pt x="832" y="958" on="0"/>
        <pt x="829" y="958" on="1"/>
        <pt x="825" y="958" on="0"/>
        <pt x="825" y="956" on="1"/>
        <pt x="752" y="680" on="1"/>
        <pt x="752" y="681" on="0"/>
        <pt x="742" y="649" on="0"/>
        <pt x="731" y="608" on="0"/>
        <pt x="721" y="572" on="0"/>
        <pt x="721" y="569" on="1"/>
        <pt x="719" y="564" on="0"/>
        <pt x="731" y="561" on="0"/>
      </contour>
    </TTGlyph>
    <TTGlyph name="t" xMin="68" yMin="-4" xMax="1386" yMax="1464">
      <contour>
        <pt x="856" y="2" on="1"/>
        <pt x="850" y="-2" on="1"/>
        <pt x="721" y="-2" on="1"/>
        <pt x="719" y="0" on="0"/>
        <pt x="713" y="2" on="0"/>
        <pt x="711" y="2" on="1"/>
        <pt x="709" y="2" on="0"/>
        <pt x="686" y="-2" on="0"/>
        <pt x="684" y="-2" on="1"/>
        <pt x="606" y="-2" on="0"/>
        <pt x="451" y="6" on="0"/>
        <pt x="373" y="6" on="1"/>
        <pt x="369" y="6" on="0"/>
        <pt x="353" y="4" on="0"/>
        <pt x="335" y="1" on="0"/>
        <pt x="317" y="-1" on="0"/>
        <pt x="311" y="-2" on="1"/>
        <pt x="84" y="-2" on="1"/>
        <pt x="73" y="-2" on="0"/>
        <pt x="70" y="15" on="0"/>
        <pt x="70" y="23" on="1"/>
        <pt x="70" y="55" on="0"/>
        <pt x="66" y="135" on="0"/>
        <pt x="74" y="170" on="1"/>
        <pt x="74" y="176" on="0"/>
        <pt x="86" y="178" on="0"/>
        <pt x="88" y="184" on="1"/>
        <pt x="79" y="193" on="0"/>
        <pt x="71" y="216" on="0"/>
        <pt x="69" y="240" on="0"/>
        <pt x="70" y="265" on="0"/>
        <pt x="70" y="276" on="1"/>
        <pt x="70" y="279" on="0"/>
        <pt x="71" y="316" on="0"/>
        <pt x="72" y="360" on="0"/>
        <pt x="73" y="395" on="0"/>
        <pt x="74" y="395" on="1"/>
        <pt x="186" y="410" on="1"/>
        <pt x="186" y="1047" on="1"/>
        <pt x="186" y="1054" on="0"/>
        <pt x="150" y="1055" on="0"/>
        <pt x="106" y="1056" on="0"/>
        <pt x="70" y="1064" on="0"/>
        <pt x="70" y="1077" on="1"/>
        <pt x="70" y="1274" on="1"/>
        <pt x="70" y="1277" on="0"/>
        <pt x="68" y="1299" on="0"/>
        <pt x="68" y="1303" on="1"/>
        <pt x="66" y="1303" on="0"/>
        <pt x="70" y="1308" on="0"/>
        <pt x="70" y="1319" on="1"/>
        <pt x="70" y="1458" on="1"/>
        <pt x="84" y="1462" on="1"/>
        <pt x="168" y="1462" on="1"/>
        <pt x="252" y="1462" on="0"/>
        <pt x="415" y="1464" on="0"/>
        <pt x="500" y="1464" on="1"/>
        <pt x="556" y="1464" on="0"/>
        <pt x="642" y="1462" on="0"/>
        <pt x="692" y="1462" on="1"/>
        <pt x="1294" y="1462" on="1"/>
        <pt x="1299" y="1462" on="0"/>
        <pt x="1304" y="1464" on="0"/>
        <pt x="1309" y="1464" on="1"/>
        <pt x="1335" y="1464" on="0"/>
        <pt x="1335" y="1430" on="1"/>
        <pt x="1335" y="1422" on="0"/>
        <pt x="1333" y="1405" on="0"/>
        <pt x="1332" y="1397" on="1"/>
        <pt x="1330" y="1388" on="0"/>
        <pt x="1329" y="1380" on="1"/>
        <pt x="1329" y="1378" on="0"/>
        <pt x="1333" y="1374" on="0"/>
        <pt x="1335" y="1372" on="1"/>
        <pt x="1335" y="1316" on="0"/>
        <pt x="1331" y="1229" on="0"/>
        <pt x="1331" y="1180" on="1"/>
        <pt x="1331" y="1139" on="0"/>
        <pt x="1335" y="1062" on="0"/>
        <pt x="1335" y="1022" on="1"/>
        <pt x="1335" y="1017" on="0"/>
        <pt x="1335" y="994" on="0"/>
        <pt x="1334" y="970" on="0"/>
        <pt x="1331" y="952" on="0"/>
        <pt x="1327" y="952" on="1"/>
        <pt x="1299" y="962" on="0"/>
        <pt x="1236" y="978" on="0"/>
        <pt x="1208" y="989" on="1"/>
        <pt x="1038" y="1030" on="1"/>
        <pt x="1035" y="1031" on="0"/>
        <pt x="1022" y="1031" on="0"/>
        <pt x="1009" y="1031" on="0"/>
        <pt x="997" y="1033" on="0"/>
        <pt x="995" y="1036" on="1"/>
        <pt x="877" y="1049" on="1"/>
        <pt x="860" y="1049" on="1"/>
        <pt x="835" y="1049" on="0"/>
        <pt x="787" y="1053" on="0"/>
        <pt x="764" y="1053" on="1"/>
        <pt x="759" y="1053" on="0"/>
        <pt x="741" y="1051" on="0"/>
        <pt x="739" y="1051" on="1"/>
        <pt x="737" y="1049" on="1"/>
        <pt x="736" y="1039" on="0"/>
        <pt x="736" y="1029" on="1"/>
        <pt x="735" y="1021" on="0"/>
        <pt x="735" y="1002" on="0"/>
        <pt x="735" y="997" on="1"/>
        <pt x="735" y="986" on="0"/>
        <pt x="732" y="939" on="0"/>
        <pt x="733" y="892" on="0"/>
        <pt x="744" y="857" on="0"/>
        <pt x="758" y="858" on="1"/>
        <pt x="997" y="911" on="1"/>
        <pt x="1009" y="914" on="0"/>
        <pt x="1039" y="918" on="0"/>
        <pt x="1066" y="922" on="0"/>
        <pt x="1088" y="924" on="0"/>
        <pt x="1092" y="924" on="1"/>
        <pt x="1094" y="920" on="1"/>
        <pt x="1094" y="914" on="0"/>
        <pt x="1095" y="909" on="1"/>
        <pt x="1095" y="904" on="0"/>
        <pt x="1096" y="896" on="0"/>
        <pt x="1096" y="893" on="1"/>
        <pt x="1096" y="891" on="0"/>
        <pt x="1095" y="865" on="0"/>
        <pt x="1095" y="832" on="0"/>
        <pt x="1094" y="802" on="0"/>
        <pt x="1094" y="797" on="1"/>
        <pt x="1094" y="795" on="0"/>
        <pt x="1095" y="782" on="0"/>
        <pt x="1095" y="765" on="0"/>
        <pt x="1096" y="751" on="0"/>
        <pt x="1096" y="750" on="1"/>
        <pt x="1096" y="743" on="0"/>
        <pt x="1097" y="709" on="0"/>
        <pt x="1098" y="666" on="0"/>
        <pt x="1098" y="619" on="0"/>
        <pt x="1096" y="580" on="0"/>
        <pt x="1091" y="553" on="0"/>
        <pt x="1087" y="551" on="1"/>
        <pt x="1073" y="549" on="0"/>
        <pt x="1023" y="556" on="0"/>
        <pt x="974" y="566" on="0"/>
        <pt x="937" y="576" on="0"/>
        <pt x="936" y="578" on="1"/>
        <pt x="805" y="604" on="1"/>
        <pt x="796" y="604" on="0"/>
        <pt x="786" y="602" on="0"/>
        <pt x="786" y="594" on="1"/>
        <pt x="786" y="432" on="1"/>
        <pt x="793" y="424" on="1"/>
        <pt x="817" y="424" on="0"/>
        <pt x="878" y="428" on="0"/>
        <pt x="909" y="428" on="1"/>
        <pt x="1077" y="446" on="1"/>
        <pt x="1105" y="451" on="0"/>
        <pt x="1132" y="456" on="1"/>
        <pt x="1155" y="461" on="0"/>
        <pt x="1205" y="470" on="0"/>
        <pt x="1225" y="475" on="1"/>
        <pt x="1243" y="479" on="0"/>
        <pt x="1290" y="496" on="0"/>
        <pt x="1336" y="514" on="0"/>
        <pt x="1374" y="527" on="0"/>
        <pt x="1382" y="526" on="1"/>
        <pt x="1386" y="512" on="1"/>
        <pt x="1386" y="480" on="0"/>
        <pt x="1385" y="421" on="0"/>
        <pt x="1382" y="389" on="1"/>
        <pt x="1382" y="10" on="1"/>
        <pt x="1382" y="1" on="0"/>
        <pt x="1356" y="-2" on="0"/>
        <pt x="1350" y="-2" on="1"/>
        <pt x="1340" y="-2" on="0"/>
        <pt x="1325" y="2" on="0"/>
        <pt x="1317" y="2" on="1"/>
        <pt x="1306" y="2" on="0"/>
        <pt x="1301" y="-4" on="0"/>
        <pt x="1294" y="-4" on="1"/>
        <pt x="938" y="-4" on="1"/>
        <pt x="929" y="-4" on="0"/>
        <pt x="898" y="-1" on="0"/>
        <pt x="895" y="2" on="1"/>
      </contour>
      <contour>
        <pt x="287" y="252" on="1"/>
        <pt x="289" y="252" on="1"/>
        <pt x="289" y="253" on="0"/>
        <pt x="288" y="254" on="1"/>
        <pt x="287" y="254" on="1"/>
      </contour>
      <contour>
        <pt x="1061" y="256" on="1"/>
        <pt x="1065" y="252" on="0"/>
        <pt x="1067" y="252" on="1"/>
        <pt x="1067" y="256" on="1"/>
      </contour>
      <contour>
        <pt x="1264" y="279" on="1"/>
        <pt x="1262" y="279" on="0"/>
        <pt x="1262" y="277" on="1"/>
        <pt x="1262" y="276" on="1"/>
        <pt x="1266" y="276" on="1"/>
      </contour>
      <contour>
        <pt x="1337" y="319" on="1"/>
        <pt x="1339" y="319" on="1"/>
        <pt x="1337" y="324" on="1"/>
      </contour>
      <contour>
        <pt x="690" y="811" on="1"/>
        <pt x="690" y="803" on="0"/>
        <pt x="696" y="803" on="1"/>
        <pt x="699" y="803" on="0"/>
        <pt x="700" y="809" on="0"/>
        <pt x="700" y="811" on="1"/>
      </contour>
      <contour>
        <pt x="963" y="1059" on="1"/>
        <pt x="962" y="1059" on="0"/>
        <pt x="961" y="1058" on="1"/>
        <pt x="961" y="1057" on="1"/>
        <pt x="961" y="1055" on="0"/>
        <pt x="963" y="1055" on="1"/>
        <pt x="964" y="1055" on="1"/>
        <pt x="964" y="1055" on="0"/>
        <pt x="965" y="1057" on="1"/>
      </contour>
      <contour>
        <pt x="961" y="1061" on="1"/>
        <pt x="958" y="1061" on="0"/>
        <pt x="958" y="1059" on="1"/>
        <pt x="961" y="1059" on="1"/>
      </contour>
      <contour>
        <pt x="918" y="1128" on="1"/>
        <pt x="917" y="1128" on="0"/>
        <pt x="916" y="1127" on="1"/>
        <pt x="915" y="1127" on="1"/>
        <pt x="915" y="1126" on="1"/>
        <pt x="915" y="1124" on="0"/>
        <pt x="918" y="1124" on="1"/>
      </contour>
      <contour>
        <pt x="512" y="1419" on="1"/>
        <pt x="510" y="1419" on="0"/>
        <pt x="510" y="1417" on="1"/>
        <pt x="512" y="1417" on="1"/>
        <pt x="514" y="1417" on="1"/>
        <pt x="514" y="1418" on="0"/>
        <pt x="513" y="1419" on="1"/>
      </contour>
    </TTGlyph>
    <TTGlyph name="u" xMin="70" yMin="-14" xMax="1624" yMax="1466">
      <contour>
        <pt x="872" y="344" on="1"/>
        <pt x="793" y="518" on="1"/>
        <pt x="793" y="521" on="0"/>
        <pt x="783" y="535" on="0"/>
        <pt x="778" y="535" on="1"/>
        <pt x="772" y="535" on="0"/>
        <pt x="770" y="518" on="0"/>
        <pt x="770" y="516" on="1"/>
        <pt x="775" y="405" on="0"/>
        <pt x="778" y="185" on="0"/>
        <pt x="778" y="74" on="1"/>
        <pt x="778" y="68" on="0"/>
        <pt x="774" y="26" on="0"/>
        <pt x="774" y="6" on="1"/>
        <pt x="772" y="2" on="1"/>
        <pt x="657" y="2" on="1"/>
        <pt x="654" y="2" on="0"/>
        <pt x="641" y="4" on="0"/>
        <pt x="639" y="4" on="1"/>
        <pt x="526" y="4" on="0"/>
        <pt x="301" y="-2" on="0"/>
        <pt x="188" y="-2" on="1"/>
        <pt x="183" y="-2" on="0"/>
        <pt x="155" y="-1" on="0"/>
        <pt x="123" y="-1" on="0"/>
        <pt x="94" y="0" on="0"/>
        <pt x="88" y="0" on="1"/>
        <pt x="86" y="-2" on="0"/>
        <pt x="82" y="-2" on="1"/>
        <pt x="77" y="-2" on="0"/>
        <pt x="73" y="7" on="0"/>
        <pt x="70" y="20" on="0"/>
        <pt x="70" y="33" on="0"/>
        <pt x="70" y="37" on="1"/>
        <pt x="70" y="42" on="0"/>
        <pt x="73" y="54" on="0"/>
        <pt x="76" y="57" on="1"/>
        <pt x="76" y="108" on="0"/>
        <pt x="72" y="203" on="0"/>
        <pt x="70" y="254" on="1"/>
        <pt x="71" y="255" on="0"/>
        <pt x="72" y="261" on="0"/>
        <pt x="73" y="264" on="1"/>
        <pt x="74" y="268" on="0"/>
        <pt x="74" y="272" on="1"/>
        <pt x="73" y="271" on="0"/>
        <pt x="72" y="296" on="0"/>
        <pt x="71" y="327" on="0"/>
        <pt x="70" y="356" on="0"/>
        <pt x="70" y="360" on="1"/>
        <pt x="71" y="365" on="0"/>
        <pt x="71" y="378" on="0"/>
        <pt x="72" y="389" on="0"/>
        <pt x="76" y="397" on="0"/>
        <pt x="82" y="397" on="1"/>
        <pt x="174" y="406" on="1"/>
        <pt x="182" y="408" on="0"/>
        <pt x="186" y="423" on="0"/>
        <pt x="186" y="428" on="1"/>
        <pt x="186" y="655" on="1"/>
        <pt x="184" y="658" on="0"/>
        <pt x="182" y="681" on="0"/>
        <pt x="182" y="684" on="1"/>
        <pt x="182" y="685" on="0"/>
        <pt x="182" y="699" on="0"/>
        <pt x="183" y="717" on="0"/>
        <pt x="184" y="733" on="0"/>
        <pt x="186" y="735" on="1"/>
        <pt x="186" y="748" on="0"/>
        <pt x="182" y="777" on="0"/>
        <pt x="182" y="793" on="1"/>
        <pt x="182" y="847" on="0"/>
        <pt x="186" y="968" on="0"/>
        <pt x="186" y="1018" on="1"/>
        <pt x="182" y="1047" on="1"/>
        <pt x="181" y="1054" on="0"/>
        <pt x="149" y="1058" on="0"/>
        <pt x="110" y="1059" on="0"/>
        <pt x="76" y="1061" on="0"/>
        <pt x="74" y="1067" on="1"/>
        <pt x="73" y="1071" on="0"/>
        <pt x="72" y="1094" on="0"/>
        <pt x="72" y="1118" on="0"/>
        <pt x="71" y="1139" on="0"/>
        <pt x="70" y="1143" on="1"/>
        <pt x="70" y="1168" on="0"/>
        <pt x="74" y="1220" on="0"/>
        <pt x="74" y="1245" on="1"/>
        <pt x="73" y="1254" on="0"/>
        <pt x="72" y="1296" on="0"/>
        <pt x="71" y="1344" on="0"/>
        <pt x="70" y="1386" on="0"/>
        <pt x="70" y="1395" on="1"/>
        <pt x="70" y="1454" on="1"/>
        <pt x="74" y="1462" on="1"/>
        <pt x="86" y="1462" on="0"/>
        <pt x="111" y="1460" on="0"/>
        <pt x="125" y="1460" on="1"/>
        <pt x="167" y="1460" on="0"/>
        <pt x="245" y="1466" on="0"/>
        <pt x="287" y="1466" on="1"/>
        <pt x="289" y="1466" on="0"/>
        <pt x="309" y="1462" on="0"/>
        <pt x="311" y="1462" on="1"/>
        <pt x="312" y="1462" on="0"/>
        <pt x="332" y="1463" on="0"/>
        <pt x="359" y="1465" on="0"/>
        <pt x="388" y="1466" on="0"/>
        <pt x="397" y="1466" on="1"/>
        <pt x="821" y="1466" on="1"/>
        <pt x="1040" y="1464" on="1"/>
        <pt x="1043" y="1464" on="0"/>
        <pt x="1070" y="1466" on="0"/>
        <pt x="1075" y="1466" on="1"/>
        <pt x="1103" y="1466" on="0"/>
        <pt x="1163" y="1458" on="0"/>
        <pt x="1192" y="1458" on="1"/>
        <pt x="1204" y="1458" on="1"/>
        <pt x="1311" y="1423" on="1"/>
        <pt x="1314" y="1423" on="0"/>
        <pt x="1342" y="1408" on="0"/>
        <pt x="1374" y="1389" on="0"/>
        <pt x="1402" y="1374" on="0"/>
        <pt x="1405" y="1374" on="1"/>
        <pt x="1448" y="1335" on="1"/>
        <pt x="1453" y="1335" on="0"/>
        <pt x="1464" y="1317" on="0"/>
        <pt x="1466" y="1315" on="1"/>
        <pt x="1521" y="1250" on="0"/>
        <pt x="1569" y="1115" on="0"/>
        <pt x="1569" y="1030" on="1"/>
        <pt x="1569" y="992" on="0"/>
        <pt x="1556" y="924" on="0"/>
        <pt x="1546" y="887" on="1"/>
        <pt x="1546" y="881" on="1"/>
        <pt x="1546" y="879" on="0"/>
        <pt x="1541" y="866" on="0"/>
        <pt x="1533" y="849" on="0"/>
        <pt x="1525" y="832" on="0"/>
        <pt x="1522" y="827" on="1"/>
        <pt x="1502" y="793" on="0"/>
        <pt x="1452" y="740" on="0"/>
        <pt x="1394" y="698" on="0"/>
        <pt x="1328" y="664" on="0"/>
        <pt x="1294" y="649" on="1"/>
        <pt x="1288" y="646" on="0"/>
        <pt x="1288" y="641" on="1"/>
        <pt x="1288" y="638" on="0"/>
        <pt x="1293" y="632" on="0"/>
        <pt x="1296" y="629" on="1"/>
        <pt x="1370" y="557" on="1"/>
        <pt x="1462" y="358" on="1"/>
        <pt x="1463" y="357" on="0"/>
        <pt x="1465" y="353" on="1"/>
        <pt x="1466" y="351" on="0"/>
        <pt x="1466" y="350" on="1"/>
        <pt x="1488" y="304" on="0"/>
        <pt x="1530" y="214" on="0"/>
        <pt x="1548" y="168" on="1"/>
        <pt x="1556" y="159" on="0"/>
        <pt x="1582" y="116" on="0"/>
        <pt x="1606" y="65" on="0"/>
        <pt x="1624" y="17" on="0"/>
        <pt x="1624" y="4" on="1"/>
        <pt x="1619" y="-2" on="0"/>
        <pt x="1578" y="-7" on="0"/>
        <pt x="1524" y="-7" on="0"/>
        <pt x="1468" y="-6" on="0"/>
        <pt x="1450" y="-6" on="1"/>
        <pt x="1446" y="-6" on="0"/>
        <pt x="1435" y="-6" on="0"/>
        <pt x="1424" y="-6" on="0"/>
        <pt x="1417" y="-4" on="0"/>
        <pt x="1417" y="-2" on="1"/>
        <pt x="1417" y="2" on="0"/>
        <pt x="1425" y="7" on="0"/>
        <pt x="1434" y="12" on="0"/>
        <pt x="1442" y="17" on="0"/>
        <pt x="1442" y="23" on="1"/>
        <pt x="1442" y="29" on="0"/>
        <pt x="1419" y="39" on="0"/>
        <pt x="1413" y="39" on="1"/>
        <pt x="1404" y="39" on="0"/>
        <pt x="1392" y="27" on="0"/>
        <pt x="1379" y="12" on="0"/>
        <pt x="1361" y="0" on="0"/>
        <pt x="1346" y="0" on="1"/>
        <pt x="1339" y="3" on="0"/>
        <pt x="1329" y="4" on="0"/>
        <pt x="1323" y="4" on="1"/>
        <pt x="1318" y="4" on="0"/>
        <pt x="1309" y="4" on="0"/>
        <pt x="1309" y="-2" on="1"/>
        <pt x="1309" y="-4" on="0"/>
        <pt x="1310" y="-5" on="1"/>
        <pt x="1310" y="-6" on="0"/>
        <pt x="1311" y="-6" on="1"/>
        <pt x="1294" y="-6" on="0"/>
        <pt x="1271" y="-10" on="0"/>
        <pt x="1245" y="-10" on="1"/>
        <pt x="1233" y="-10" on="0"/>
        <pt x="1213" y="-10" on="0"/>
        <pt x="1208" y="-8" on="1"/>
        <pt x="1203" y="-11" on="0"/>
        <pt x="1194" y="-12" on="0"/>
        <pt x="1188" y="-12" on="1"/>
        <pt x="1167" y="-12" on="1"/>
        <pt x="1164" y="-12" on="0"/>
        <pt x="1156" y="-12" on="0"/>
        <pt x="1153" y="-14" on="1"/>
        <pt x="1040" y="-14" on="1"/>
        <pt x="1037" y="-14" on="0"/>
        <pt x="1030" y="-8" on="0"/>
        <pt x="1030" y="-6" on="1"/>
        <pt x="872" y="336" on="1"/>
      </contour>
      <contour>
        <pt x="471" y="14" on="1"/>
        <pt x="470" y="13" on="0"/>
        <pt x="471" y="12" on="1"/>
        <pt x="471" y="10" on="0"/>
        <pt x="475" y="10" on="1"/>
        <pt x="481" y="10" on="0"/>
        <pt x="481" y="14" on="1"/>
        <pt x="481" y="20" on="0"/>
        <pt x="475" y="20" on="1"/>
        <pt x="471" y="20" on="0"/>
      </contour>
      <contour>
        <pt x="739" y="104" on="1"/>
        <pt x="735" y="104" on="0"/>
        <pt x="735" y="100" on="1"/>
        <pt x="739" y="100" on="1"/>
      </contour>
      <contour>
        <pt x="1415" y="170" on="1"/>
        <pt x="1423" y="167" on="0"/>
        <pt x="1432" y="189" on="0"/>
        <pt x="1432" y="197" on="1"/>
        <pt x="1432" y="202" on="0"/>
        <pt x="1426" y="209" on="0"/>
        <pt x="1421" y="209" on="1"/>
        <pt x="1416" y="209" on="0"/>
        <pt x="1399" y="201" on="0"/>
        <pt x="1397" y="201" on="1"/>
        <pt x="1397" y="188" on="1"/>
      </contour>
      <contour>
        <pt x="1434" y="268" on="1"/>
        <pt x="1432" y="268" on="0"/>
        <pt x="1432" y="266" on="1"/>
        <pt x="1434" y="266" on="1"/>
        <pt x="1436" y="266" on="1"/>
        <pt x="1436" y="267" on="0"/>
        <pt x="1435" y="268" on="1"/>
      </contour>
      <contour>
        <pt x="1417" y="283" on="1"/>
        <pt x="1415" y="283" on="0"/>
        <pt x="1415" y="281" on="1"/>
        <pt x="1417" y="281" on="1"/>
        <pt x="1419" y="281" on="1"/>
        <pt x="1419" y="282" on="0"/>
        <pt x="1418" y="283" on="1"/>
      </contour>
      <contour>
        <pt x="1286" y="766" on="1"/>
        <pt x="1292" y="766" on="1"/>
        <pt x="1292" y="770" on="1"/>
        <pt x="1286" y="770" on="1"/>
      </contour>
      <contour>
        <pt x="305" y="819" on="1"/>
        <pt x="309" y="766" on="1"/>
        <pt x="309" y="811" on="1"/>
        <pt x="305" y="815" on="0"/>
      </contour>
      <contour>
        <pt x="766" y="868" on="1"/>
        <pt x="768" y="864" on="0"/>
        <pt x="770" y="864" on="1"/>
        <pt x="879" y="864" on="1"/>
        <pt x="908" y="864" on="0"/>
        <pt x="950" y="885" on="0"/>
        <pt x="978" y="920" on="0"/>
        <pt x="991" y="967" on="0"/>
        <pt x="991" y="993" on="1"/>
        <pt x="991" y="1044" on="0"/>
        <pt x="957" y="1098" on="0"/>
        <pt x="898" y="1120" on="0"/>
        <pt x="817" y="1122" on="0"/>
        <pt x="770" y="1122" on="1"/>
        <pt x="766" y="1118" on="1"/>
        <pt x="766" y="1104" on="0"/>
        <pt x="764" y="1075" on="0"/>
        <pt x="764" y="1057" on="1"/>
        <pt x="764" y="1055" on="0"/>
        <pt x="765" y="1036" on="0"/>
        <pt x="765" y="1014" on="0"/>
        <pt x="766" y="995" on="0"/>
        <pt x="766" y="993" on="1"/>
        <pt x="766" y="962" on="0"/>
        <pt x="764" y="907" on="0"/>
        <pt x="764" y="872" on="1"/>
      </contour>
      <contour>
        <pt x="1319" y="893" on="1"/>
        <pt x="1315" y="893" on="0"/>
        <pt x="1315" y="889" on="1"/>
        <pt x="1323" y="889" on="1"/>
      </contour>
      <contour>
        <pt x="1382" y="1293" on="1"/>
        <pt x="1382" y="1293" on="0"/>
        <pt x="1380" y="1294" on="1"/>
        <pt x="1380" y="1292" on="1"/>
        <pt x="1382" y="1292" on="1"/>
      </contour>
      <contour>
        <pt x="827" y="1436" on="1"/>
        <pt x="827" y="1429" on="0"/>
        <pt x="847" y="1423" on="0"/>
        <pt x="852" y="1421" on="1"/>
        <pt x="854" y="1425" on="1"/>
        <pt x="854" y="1433" on="0"/>
        <pt x="839" y="1440" on="0"/>
        <pt x="831" y="1440" on="1"/>
        <pt x="827" y="1440" on="0"/>
      </contour>
      <contour>
        <pt x="309" y="1432" on="1"/>
        <pt x="309" y="1430" on="0"/>
        <pt x="311" y="1430" on="1"/>
        <pt x="313" y="1430" on="1"/>
        <pt x="313" y="1431" on="0"/>
        <pt x="312" y="1432" on="1"/>
        <pt x="311" y="1432" on="1"/>
      </contour>
    </TTGlyph>
    <TTGlyph name="v" xMin="63" yMin="-27" xMax="1430" yMax="1503">
      <contour>
        <pt x="287" y="18" on="1"/>
        <pt x="251" y="34" on="0"/>
        <pt x="209" y="37" on="1"/>
        <pt x="96" y="72" on="1"/>
        <pt x="79" y="78" on="0"/>
        <pt x="68" y="104" on="0"/>
        <pt x="68" y="127" on="1"/>
        <pt x="68" y="135" on="0"/>
        <pt x="68" y="165" on="0"/>
        <pt x="74" y="174" on="1"/>
        <pt x="74" y="190" on="1"/>
        <pt x="74" y="198" on="0"/>
        <pt x="75" y="211" on="0"/>
        <pt x="78" y="217" on="1"/>
        <pt x="81" y="211" on="0"/>
        <pt x="84" y="211" on="1"/>
        <pt x="82" y="211" on="0"/>
        <pt x="94" y="216" on="0"/>
        <pt x="108" y="225" on="0"/>
        <pt x="121" y="237" on="0"/>
        <pt x="121" y="244" on="1"/>
        <pt x="121" y="248" on="0"/>
        <pt x="108" y="247" on="0"/>
        <pt x="92" y="250" on="0"/>
        <pt x="79" y="263" on="0"/>
        <pt x="80" y="281" on="1"/>
        <pt x="96" y="453" on="1"/>
        <pt x="113" y="461" on="1"/>
        <pt x="106" y="471" on="0"/>
        <pt x="98" y="471" on="1"/>
        <pt x="96" y="496" on="0"/>
        <pt x="97" y="516" on="1"/>
        <pt x="98" y="533" on="0"/>
        <pt x="102" y="561" on="0"/>
        <pt x="109" y="561" on="1"/>
        <pt x="116" y="561" on="0"/>
        <pt x="128" y="556" on="0"/>
        <pt x="149" y="544" on="0"/>
        <pt x="184" y="525" on="0"/>
        <pt x="213" y="510" on="1"/>
        <pt x="219" y="506" on="0"/>
        <pt x="238" y="499" on="0"/>
        <pt x="258" y="492" on="0"/>
        <pt x="276" y="484" on="0"/>
        <pt x="281" y="479" on="1"/>
        <pt x="440" y="432" on="1"/>
        <pt x="447" y="432" on="0"/>
        <pt x="450" y="430" on="0"/>
        <pt x="455" y="428" on="1"/>
        <pt x="501" y="420" on="0"/>
        <pt x="593" y="410" on="0"/>
        <pt x="639" y="410" on="1"/>
        <pt x="661" y="410" on="0"/>
        <pt x="712" y="412" on="0"/>
        <pt x="755" y="427" on="0"/>
        <pt x="784" y="459" on="0"/>
        <pt x="784" y="489" on="1"/>
        <pt x="778" y="499" on="0"/>
        <pt x="738" y="506" on="0"/>
        <pt x="689" y="509" on="0"/>
        <pt x="639" y="512" on="0"/>
        <pt x="623" y="518" on="1"/>
        <pt x="610" y="518" on="1"/>
        <pt x="596" y="518" on="0"/>
        <pt x="592" y="522" on="1"/>
        <pt x="542" y="533" on="0"/>
        <pt x="443" y="555" on="0"/>
        <pt x="393" y="567" on="1"/>
        <pt x="385" y="573" on="0"/>
        <pt x="359" y="586" on="0"/>
        <pt x="330" y="597" on="0"/>
        <pt x="305" y="605" on="0"/>
        <pt x="299" y="606" on="1"/>
        <pt x="213" y="662" on="1"/>
        <pt x="211" y="664" on="0"/>
        <pt x="201" y="674" on="0"/>
        <pt x="189" y="685" on="0"/>
        <pt x="178" y="694" on="0"/>
        <pt x="176" y="696" on="1"/>
        <pt x="159" y="711" on="0"/>
        <pt x="125" y="759" on="0"/>
        <pt x="97" y="810" on="0"/>
        <pt x="80" y="856" on="0"/>
        <pt x="80" y="868" on="1"/>
        <pt x="80" y="874" on="1"/>
        <pt x="63" y="975" on="1"/>
        <pt x="74" y="1110" on="1"/>
        <pt x="74" y="1111" on="0"/>
        <pt x="81" y="1136" on="0"/>
        <pt x="91" y="1167" on="0"/>
        <pt x="102" y="1199" on="0"/>
        <pt x="106" y="1208" on="1"/>
        <pt x="129" y="1267" on="0"/>
        <pt x="220" y="1361" on="0"/>
        <pt x="272" y="1393" on="1"/>
        <pt x="274" y="1397" on="1"/>
        <pt x="283" y="1401" on="0"/>
        <pt x="308" y="1412" on="0"/>
        <pt x="337" y="1423" on="0"/>
        <pt x="365" y="1434" on="0"/>
        <pt x="377" y="1440" on="1"/>
        <pt x="381" y="1440" on="0"/>
        <pt x="409" y="1449" on="0"/>
        <pt x="441" y="1461" on="0"/>
        <pt x="467" y="1470" on="0"/>
        <pt x="469" y="1470" on="1"/>
        <pt x="473" y="1470" on="1"/>
        <pt x="535" y="1487" on="1"/>
        <pt x="539" y="1487" on="0"/>
        <pt x="556" y="1489" on="0"/>
        <pt x="575" y="1491" on="0"/>
        <pt x="593" y="1493" on="0"/>
        <pt x="600" y="1493" on="1"/>
        <pt x="609" y="1493" on="0"/>
        <pt x="652" y="1495" on="0"/>
        <pt x="700" y="1498" on="0"/>
        <pt x="743" y="1500" on="0"/>
        <pt x="752" y="1501" on="1"/>
        <pt x="760" y="1501" on="1"/>
        <pt x="765" y="1503" on="0"/>
        <pt x="798" y="1503" on="0"/>
        <pt x="803" y="1503" on="1"/>
        <pt x="868" y="1503" on="0"/>
        <pt x="973" y="1486" on="0"/>
        <pt x="999" y="1481" on="1"/>
        <pt x="1010" y="1481" on="1"/>
        <pt x="1028" y="1481" on="0"/>
        <pt x="1074" y="1473" on="0"/>
        <pt x="1116" y="1463" on="0"/>
        <pt x="1148" y="1450" on="0"/>
        <pt x="1153" y="1446" on="1"/>
        <pt x="1155" y="1450" on="0"/>
        <pt x="1159" y="1450" on="1"/>
        <pt x="1231" y="1432" on="1"/>
        <pt x="1236" y="1428" on="0"/>
        <pt x="1246" y="1425" on="0"/>
        <pt x="1249" y="1425" on="1"/>
        <pt x="1358" y="1384" on="1"/>
        <pt x="1364" y="1380" on="0"/>
        <pt x="1376" y="1377" on="0"/>
        <pt x="1385" y="1369" on="0"/>
        <pt x="1391" y="1351" on="0"/>
        <pt x="1391" y="1333" on="1"/>
        <pt x="1391" y="1255" on="0"/>
        <pt x="1382" y="1100" on="0"/>
        <pt x="1382" y="1022" on="1"/>
        <pt x="1382" y="952" on="1"/>
        <pt x="1382" y="934" on="0"/>
        <pt x="1381" y="893" on="0"/>
        <pt x="1372" y="879" on="1"/>
        <pt x="1366" y="879" on="0"/>
        <pt x="1330" y="903" on="0"/>
        <pt x="1294" y="931" on="0"/>
        <pt x="1269" y="950" on="0"/>
        <pt x="1274" y="946" on="1"/>
        <pt x="1092" y="1020" on="1"/>
        <pt x="1067" y="1026" on="0"/>
        <pt x="1008" y="1042" on="0"/>
        <pt x="971" y="1049" on="1"/>
        <pt x="968" y="1049" on="0"/>
        <pt x="965" y="1047" on="0"/>
        <pt x="963" y="1047" on="1"/>
        <pt x="961" y="1047" on="0"/>
        <pt x="959" y="1049" on="0"/>
        <pt x="952" y="1051" on="1"/>
        <pt x="950" y="1051" on="0"/>
        <pt x="914" y="1053" on="0"/>
        <pt x="869" y="1056" on="0"/>
        <pt x="829" y="1058" on="0"/>
        <pt x="823" y="1059" on="1"/>
        <pt x="805" y="1059" on="0"/>
        <pt x="762" y="1051" on="0"/>
        <pt x="728" y="1032" on="0"/>
        <pt x="706" y="999" on="0"/>
        <pt x="709" y="975" on="1"/>
        <pt x="881" y="950" on="1"/>
        <pt x="887" y="950" on="1"/>
        <pt x="902" y="950" on="0"/>
        <pt x="933" y="936" on="0"/>
        <pt x="948" y="936" on="1"/>
        <pt x="951" y="936" on="0"/>
        <pt x="955" y="938" on="0"/>
        <pt x="958" y="938" on="1"/>
        <pt x="970" y="934" on="0"/>
        <pt x="1005" y="924" on="0"/>
        <pt x="1038" y="915" on="0"/>
        <pt x="1062" y="909" on="0"/>
        <pt x="1061" y="909" on="1"/>
        <pt x="1214" y="838" on="1"/>
        <pt x="1227" y="833" on="0"/>
        <pt x="1265" y="809" on="0"/>
        <pt x="1304" y="779" on="0"/>
        <pt x="1339" y="746" on="0"/>
        <pt x="1350" y="731" on="1"/>
        <pt x="1387" y="680" on="0"/>
        <pt x="1430" y="552" on="0"/>
        <pt x="1430" y="498" on="1"/>
        <pt x="1430" y="450" on="0"/>
        <pt x="1423" y="371" on="0"/>
        <pt x="1405" y="299" on="0"/>
        <pt x="1374" y="232" on="0"/>
        <pt x="1350" y="197" on="1"/>
        <pt x="1347" y="192" on="0"/>
        <pt x="1334" y="188" on="0"/>
        <pt x="1321" y="184" on="0"/>
        <pt x="1311" y="177" on="0"/>
        <pt x="1311" y="170" on="1"/>
        <pt x="1311" y="167" on="0"/>
        <pt x="1315" y="165" on="0"/>
        <pt x="1315" y="162" on="1"/>
        <pt x="1315" y="161" on="0"/>
        <pt x="1314" y="159" on="0"/>
        <pt x="1314" y="158" on="1"/>
        <pt x="1313" y="157" on="0"/>
        <pt x="1313" y="156" on="1"/>
        <pt x="1285" y="129" on="0"/>
        <pt x="1232" y="87" on="0"/>
        <pt x="1175" y="53" on="0"/>
        <pt x="1112" y="27" on="0"/>
        <pt x="1075" y="16" on="1"/>
        <pt x="1070" y="16" on="0"/>
        <pt x="1066" y="23" on="0"/>
        <pt x="1063" y="23" on="1"/>
        <pt x="1057" y="23" on="0"/>
        <pt x="1053" y="10" on="0"/>
        <pt x="1047" y="8" on="1"/>
        <pt x="969" y="-13" on="0"/>
        <pt x="816" y="-27" on="0"/>
        <pt x="735" y="-27" on="1"/>
        <pt x="723" y="-27" on="0"/>
        <pt x="702" y="-18" on="0"/>
        <pt x="692" y="-18" on="1"/>
        <pt x="681" y="-18" on="0"/>
        <pt x="669" y="-27" on="0"/>
        <pt x="659" y="-27" on="1"/>
        <pt x="630" y="-27" on="0"/>
        <pt x="573" y="-16" on="0"/>
        <pt x="545" y="-16" on="1"/>
        <pt x="530" y="-16" on="1"/>
      </contour>
      <contour>
        <pt x="1149" y="166" on="1"/>
        <pt x="1149" y="160" on="0"/>
        <pt x="1153" y="160" on="1"/>
        <pt x="1157" y="160" on="0"/>
        <pt x="1157" y="166" on="1"/>
        <pt x="1157" y="170" on="0"/>
        <pt x="1153" y="170" on="1"/>
        <pt x="1149" y="170" on="0"/>
      </contour>
      <contour>
        <pt x="1079" y="188" on="1"/>
        <pt x="1079" y="180" on="0"/>
        <pt x="1082" y="176" on="0"/>
        <pt x="1090" y="176" on="1"/>
        <pt x="1096" y="176" on="0"/>
        <pt x="1106" y="182" on="0"/>
        <pt x="1106" y="190" on="1"/>
        <pt x="1106" y="195" on="0"/>
        <pt x="1097" y="199" on="0"/>
        <pt x="1092" y="199" on="1"/>
        <pt x="1090" y="199" on="0"/>
        <pt x="1085" y="199" on="0"/>
        <pt x="1083" y="197" on="1"/>
        <pt x="1081" y="199" on="1"/>
        <pt x="1079" y="199" on="0"/>
        <pt x="1079" y="193" on="1"/>
      </contour>
      <contour>
        <pt x="133" y="186" on="1"/>
        <pt x="133" y="181" on="0"/>
        <pt x="136" y="180" on="0"/>
        <pt x="141" y="180" on="1"/>
        <pt x="146" y="180" on="0"/>
        <pt x="147" y="182" on="0"/>
        <pt x="147" y="190" on="1"/>
        <pt x="147" y="193" on="0"/>
        <pt x="143" y="193" on="1"/>
        <pt x="138" y="193" on="0"/>
        <pt x="133" y="191" on="0"/>
      </contour>
      <contour>
        <pt x="1186" y="250" on="1"/>
        <pt x="1186" y="244" on="0"/>
        <pt x="1189" y="242" on="0"/>
        <pt x="1194" y="242" on="1"/>
        <pt x="1203" y="242" on="0"/>
        <pt x="1212" y="257" on="0"/>
        <pt x="1212" y="266" on="1"/>
        <pt x="1204" y="266" on="0"/>
        <pt x="1186" y="261" on="0"/>
      </contour>
      <contour>
        <pt x="1374" y="401" on="1"/>
        <pt x="1374" y="393" on="0"/>
        <pt x="1378" y="393" on="1"/>
        <pt x="1383" y="393" on="0"/>
        <pt x="1391" y="398" on="0"/>
        <pt x="1391" y="403" on="1"/>
        <pt x="1391" y="407" on="0"/>
        <pt x="1383" y="414" on="0"/>
        <pt x="1378" y="414" on="1"/>
        <pt x="1375" y="414" on="0"/>
        <pt x="1374" y="410" on="0"/>
        <pt x="1374" y="408" on="1"/>
      </contour>
      <contour>
        <pt x="391" y="420" on="1"/>
        <pt x="391" y="416" on="0"/>
        <pt x="395" y="416" on="1"/>
        <pt x="399" y="416" on="0"/>
        <pt x="399" y="420" on="1"/>
        <pt x="399" y="426" on="0"/>
        <pt x="395" y="426" on="1"/>
        <pt x="391" y="426" on="0"/>
      </contour>
      <contour>
        <pt x="1403" y="426" on="1"/>
        <pt x="1403" y="424" on="0"/>
        <pt x="1404" y="420" on="0"/>
        <pt x="1407" y="420" on="1"/>
        <pt x="1413" y="420" on="0"/>
        <pt x="1425" y="439" on="0"/>
        <pt x="1425" y="444" on="1"/>
        <pt x="1425" y="449" on="0"/>
        <pt x="1420" y="451" on="0"/>
        <pt x="1417" y="451" on="1"/>
        <pt x="1408" y="451" on="0"/>
        <pt x="1403" y="434" on="0"/>
      </contour>
      <contour>
        <pt x="236" y="727" on="1"/>
        <pt x="236" y="721" on="0"/>
        <pt x="240" y="721" on="1"/>
        <pt x="246" y="721" on="0"/>
        <pt x="246" y="725" on="1"/>
        <pt x="246" y="723" on="0"/>
        <pt x="245" y="731" on="0"/>
        <pt x="240" y="731" on="1"/>
        <pt x="236" y="731" on="0"/>
      </contour>
      <contour>
        <pt x="326" y="729" on="1"/>
        <pt x="317" y="729" on="0"/>
        <pt x="317" y="719" on="1"/>
        <pt x="321" y="719" on="0"/>
        <pt x="326" y="726" on="0"/>
        <pt x="328" y="729" on="1"/>
      </contour>
      <contour>
        <pt x="717" y="815" on="1"/>
        <pt x="717" y="807" on="0"/>
        <pt x="742" y="801" on="0"/>
        <pt x="750" y="801" on="1"/>
        <pt x="763" y="801" on="0"/>
        <pt x="777" y="825" on="0"/>
        <pt x="783" y="852" on="0"/>
        <pt x="784" y="873" on="0"/>
        <pt x="784" y="870" on="1"/>
        <pt x="784" y="881" on="0"/>
        <pt x="779" y="893" on="0"/>
        <pt x="770" y="893" on="1"/>
        <pt x="768" y="886" on="0"/>
        <pt x="759" y="875" on="0"/>
        <pt x="749" y="867" on="0"/>
        <pt x="741" y="861" on="0"/>
        <pt x="741" y="860" on="1"/>
        <pt x="741" y="836" on="1"/>
        <pt x="741" y="833" on="0"/>
        <pt x="733" y="829" on="0"/>
        <pt x="724" y="826" on="0"/>
        <pt x="717" y="820" on="0"/>
      </contour>
      <contour>
        <pt x="643" y="901" on="1"/>
        <pt x="639" y="901" on="0"/>
        <pt x="639" y="897" on="1"/>
        <pt x="639" y="860" on="1"/>
        <pt x="639" y="858" on="0"/>
        <pt x="641" y="858" on="1"/>
        <pt x="652" y="858" on="0"/>
        <pt x="653" y="869" on="0"/>
        <pt x="653" y="877" on="1"/>
        <pt x="653" y="880" on="0"/>
        <pt x="651" y="901" on="0"/>
      </contour>
      <contour>
        <pt x="684" y="881" on="1"/>
        <pt x="695" y="881" on="0"/>
        <pt x="714" y="868" on="0"/>
        <pt x="723" y="868" on="1"/>
        <pt x="729" y="868" on="0"/>
        <pt x="731" y="872" on="0"/>
        <pt x="731" y="879" on="1"/>
        <pt x="731" y="885" on="0"/>
        <pt x="725" y="891" on="0"/>
        <pt x="717" y="896" on="0"/>
        <pt x="710" y="900" on="0"/>
        <pt x="709" y="905" on="1"/>
        <pt x="709" y="908" on="0"/>
        <pt x="711" y="915" on="0"/>
        <pt x="713" y="915" on="1"/>
        <pt x="735" y="915" on="1"/>
        <pt x="737" y="913" on="0"/>
        <pt x="741" y="913" on="0"/>
        <pt x="743" y="913" on="1"/>
        <pt x="750" y="913" on="0"/>
        <pt x="758" y="922" on="0"/>
        <pt x="758" y="928" on="1"/>
        <pt x="758" y="936" on="0"/>
        <pt x="752" y="940" on="0"/>
        <pt x="745" y="940" on="1"/>
        <pt x="740" y="940" on="0"/>
        <pt x="734" y="938" on="0"/>
        <pt x="729" y="938" on="1"/>
        <pt x="724" y="938" on="0"/>
        <pt x="720" y="940" on="0"/>
        <pt x="715" y="940" on="1"/>
        <pt x="696" y="920" on="1"/>
        <pt x="697" y="919" on="0"/>
        <pt x="696" y="919" on="0"/>
        <pt x="695" y="917" on="0"/>
        <pt x="699" y="911" on="0"/>
        <pt x="705" y="905" on="1"/>
        <pt x="705" y="902" on="0"/>
        <pt x="687" y="887" on="0"/>
        <pt x="684" y="887" on="1"/>
        <pt x="682" y="887" on="0"/>
        <pt x="679" y="888" on="1"/>
        <pt x="677" y="888" on="0"/>
        <pt x="673" y="889" on="0"/>
        <pt x="672" y="889" on="1"/>
        <pt x="666" y="889" on="0"/>
        <pt x="664" y="886" on="0"/>
        <pt x="664" y="881" on="1"/>
        <pt x="664" y="878" on="0"/>
        <pt x="671" y="877" on="0"/>
        <pt x="674" y="877" on="1"/>
        <pt x="677" y="877" on="0"/>
        <pt x="681" y="881" on="0"/>
      </contour>
      <contour>
        <pt x="1319" y="1096" on="1"/>
        <pt x="1319" y="1085" on="0"/>
        <pt x="1333" y="1085" on="1"/>
        <pt x="1341" y="1085" on="0"/>
        <pt x="1341" y="1094" on="1"/>
        <pt x="1341" y="1104" on="0"/>
        <pt x="1329" y="1104" on="1"/>
        <pt x="1323" y="1104" on="0"/>
        <pt x="1319" y="1102" on="0"/>
      </contour>
      <contour>
        <pt x="401" y="1087" on="1"/>
        <pt x="403" y="1087" on="1"/>
        <pt x="403" y="1092" on="0"/>
        <pt x="401" y="1094" on="1"/>
      </contour>
      <contour>
        <pt x="850" y="1114" on="1"/>
        <pt x="850" y="1112" on="0"/>
        <pt x="862" y="1106" on="0"/>
        <pt x="864" y="1106" on="1"/>
        <pt x="866" y="1106" on="0"/>
        <pt x="877" y="1111" on="0"/>
        <pt x="879" y="1114" on="1"/>
        <pt x="874" y="1120" on="0"/>
        <pt x="870" y="1126" on="0"/>
        <pt x="862" y="1126" on="1"/>
        <pt x="857" y="1126" on="0"/>
        <pt x="850" y="1120" on="0"/>
      </contour>
      <contour>
        <pt x="715" y="1128" on="1"/>
        <pt x="709" y="1128" on="0"/>
        <pt x="709" y="1117" on="0"/>
        <pt x="709" y="1114" on="1"/>
        <pt x="723" y="1114" on="1"/>
        <pt x="723" y="1119" on="0"/>
        <pt x="720" y="1128" on="0"/>
      </contour>
      <contour>
        <pt x="1124" y="1133" on="1"/>
        <pt x="1129" y="1133" on="0"/>
        <pt x="1139" y="1125" on="0"/>
        <pt x="1141" y="1122" on="1"/>
        <pt x="1150" y="1122" on="0"/>
        <pt x="1174" y="1130" on="0"/>
        <pt x="1188" y="1130" on="1"/>
        <pt x="1188" y="1141" on="0"/>
        <pt x="1175" y="1147" on="0"/>
        <pt x="1165" y="1147" on="1"/>
        <pt x="1164" y="1147" on="0"/>
        <pt x="1151" y="1148" on="0"/>
        <pt x="1136" y="1146" on="0"/>
        <pt x="1124" y="1140" on="0"/>
      </contour>
      <contour>
        <pt x="647" y="1155" on="1"/>
        <pt x="647" y="1150" on="0"/>
        <pt x="649" y="1139" on="0"/>
        <pt x="655" y="1139" on="1"/>
        <pt x="660" y="1139" on="0"/>
        <pt x="664" y="1143" on="0"/>
        <pt x="672" y="1143" on="1"/>
        <pt x="672" y="1151" on="0"/>
        <pt x="667" y="1169" on="0"/>
        <pt x="657" y="1169" on="1"/>
        <pt x="647" y="1169" on="0"/>
      </contour>
      <contour>
        <pt x="844" y="1157" on="1"/>
        <pt x="842" y="1157" on="0"/>
        <pt x="842" y="1155" on="1"/>
        <pt x="844" y="1155" on="1"/>
      </contour>
      <contour>
        <pt x="879" y="1171" on="1"/>
        <pt x="879" y="1168" on="0"/>
        <pt x="879" y="1162" on="0"/>
        <pt x="881" y="1157" on="1"/>
        <pt x="889" y="1155" on="0"/>
        <pt x="891" y="1169" on="0"/>
        <pt x="891" y="1174" on="1"/>
        <pt x="891" y="1179" on="0"/>
        <pt x="891" y="1184" on="0"/>
        <pt x="885" y="1184" on="1"/>
        <pt x="879" y="1184" on="0"/>
        <pt x="879" y="1175" on="0"/>
      </contour>
      <contour>
        <pt x="782" y="1171" on="1"/>
        <pt x="782" y="1163" on="0"/>
        <pt x="788" y="1163" on="1"/>
        <pt x="793" y="1163" on="0"/>
        <pt x="793" y="1171" on="1"/>
      </contour>
      <contour>
        <pt x="1176" y="1178" on="1"/>
        <pt x="1176" y="1175" on="0"/>
        <pt x="1177" y="1169" on="0"/>
        <pt x="1180" y="1167" on="1"/>
        <pt x="1188" y="1172" on="0"/>
        <pt x="1210" y="1175" on="0"/>
        <pt x="1210" y="1178" on="1"/>
        <pt x="1210" y="1189" on="0"/>
        <pt x="1201" y="1206" on="0"/>
        <pt x="1198" y="1206" on="1"/>
        <pt x="1190" y="1206" on="0"/>
        <pt x="1176" y="1184" on="0"/>
      </contour>
      <contour>
        <pt x="664" y="1184" on="1"/>
        <pt x="670" y="1184" on="1"/>
        <pt x="670" y="1186" on="0"/>
        <pt x="666" y="1192" on="0"/>
        <pt x="664" y="1190" on="1"/>
      </contour>
      <contour>
        <pt x="1030" y="1268" on="1"/>
        <pt x="1029" y="1266" on="0"/>
        <pt x="1030" y="1265" on="1"/>
        <pt x="1030" y="1262" on="0"/>
        <pt x="1034" y="1262" on="1"/>
        <pt x="1047" y="1264" on="1"/>
        <pt x="1043" y="1267" on="0"/>
        <pt x="1035" y="1268" on="0"/>
      </contour>
      <contour>
        <pt x="717" y="1288" on="1"/>
        <pt x="717" y="1280" on="0"/>
        <pt x="725" y="1280" on="1"/>
        <pt x="735" y="1280" on="0"/>
        <pt x="735" y="1292" on="1"/>
        <pt x="735" y="1296" on="0"/>
        <pt x="727" y="1296" on="1"/>
        <pt x="717" y="1296" on="0"/>
      </contour>
      <contour>
        <pt x="754" y="1300" on="1"/>
        <pt x="754" y="1286" on="0"/>
        <pt x="766" y="1286" on="1"/>
        <pt x="775" y="1286" on="0"/>
        <pt x="792" y="1288" on="0"/>
        <pt x="797" y="1296" on="1"/>
        <pt x="795" y="1298" on="0"/>
        <pt x="795" y="1303" on="1"/>
        <pt x="795" y="1307" on="1"/>
        <pt x="793" y="1308" on="1"/>
        <pt x="791" y="1309" on="0"/>
        <pt x="787" y="1311" on="0"/>
        <pt x="784" y="1313" on="1"/>
        <pt x="778" y="1313" on="0"/>
        <pt x="754" y="1304" on="0"/>
      </contour>
      <contour>
        <pt x="1102" y="1382" on="1"/>
        <pt x="1102" y="1377" on="0"/>
        <pt x="1109" y="1370" on="0"/>
        <pt x="1114" y="1370" on="1"/>
        <pt x="1114" y="1382" on="1"/>
      </contour>
      <contour>
        <pt x="1165" y="1386" on="1"/>
        <pt x="1165" y="1383" on="0"/>
        <pt x="1165" y="1372" on="0"/>
        <pt x="1167" y="1372" on="1"/>
        <pt x="1184" y="1372" on="1"/>
        <pt x="1186" y="1376" on="1"/>
        <pt x="1186" y="1381" on="0"/>
        <pt x="1181" y="1397" on="0"/>
        <pt x="1176" y="1397" on="1"/>
        <pt x="1171" y="1397" on="0"/>
        <pt x="1165" y="1390" on="0"/>
      </contour>
      <contour>
        <pt x="719" y="1401" on="1"/>
        <pt x="708" y="1401" on="0"/>
        <pt x="696" y="1388" on="0"/>
        <pt x="696" y="1380" on="1"/>
        <pt x="698" y="1380" on="0"/>
        <pt x="710" y="1384" on="0"/>
        <pt x="722" y="1390" on="0"/>
        <pt x="731" y="1395" on="0"/>
        <pt x="731" y="1397" on="1"/>
        <pt x="731" y="1400" on="0"/>
        <pt x="727" y="1401" on="0"/>
        <pt x="725" y="1401" on="1"/>
      </contour>
      <contour>
        <pt x="635" y="1393" on="1"/>
        <pt x="645" y="1393" on="1"/>
        <pt x="645" y="1398" on="0"/>
        <pt x="642" y="1405" on="0"/>
        <pt x="637" y="1405" on="1"/>
        <pt x="636" y="1405" on="1"/>
        <pt x="635" y="1405" on="0"/>
        <pt x="635" y="1403" on="1"/>
      </contour>
      <contour>
        <pt x="496" y="1405" on="1"/>
        <pt x="485" y="1405" on="0"/>
        <pt x="485" y="1397" on="1"/>
        <pt x="504" y="1397" on="1"/>
        <pt x="505" y="1398" on="1"/>
        <pt x="505" y="1399" on="0"/>
        <pt x="506" y="1400" on="0"/>
        <pt x="506" y="1401" on="1"/>
        <pt x="506" y="1403" on="0"/>
        <pt x="503" y="1403" on="0"/>
        <pt x="501" y="1404" on="1"/>
        <pt x="498" y="1404" on="0"/>
      </contour>
      <contour>
        <pt x="438" y="1407" on="1"/>
        <pt x="438" y="1401" on="0"/>
        <pt x="443" y="1399" on="0"/>
        <pt x="446" y="1399" on="1"/>
        <pt x="454" y="1399" on="0"/>
        <pt x="467" y="1399" on="0"/>
        <pt x="473" y="1401" on="1"/>
        <pt x="478" y="1401" on="0"/>
        <pt x="461" y="1413" on="0"/>
        <pt x="449" y="1425" on="1"/>
        <pt x="442" y="1425" on="0"/>
        <pt x="438" y="1410" on="0"/>
      </contour>
      <contour>
        <pt x="768" y="1419" on="1"/>
        <pt x="768" y="1417" on="0"/>
        <pt x="771" y="1401" on="0"/>
        <pt x="776" y="1401" on="1"/>
        <pt x="778" y="1401" on="0"/>
        <pt x="786" y="1406" on="0"/>
        <pt x="786" y="1409" on="1"/>
        <pt x="786" y="1417" on="0"/>
        <pt x="773" y="1419" on="0"/>
      </contour>
      <contour>
        <pt x="743" y="1468" on="1"/>
        <pt x="748" y="1466" on="0"/>
        <pt x="755" y="1464" on="0"/>
        <pt x="760" y="1464" on="1"/>
        <pt x="760" y="1467" on="0"/>
        <pt x="757" y="1477" on="0"/>
        <pt x="754" y="1477" on="1"/>
        <pt x="754" y="1479" on="0"/>
        <pt x="747" y="1472" on="0"/>
      </contour>
    </TTGlyph>
</ttFont>
